<?xml version="1.0" encoding="utf-8"?>
<!-- Generator: Adobe Illustrator 21.1.0, SVG Export Plug-In . SVG Version: 6.00 Build 0)  -->
<svg version="1.1" id="Layer_1" xmlns="http://www.w3.org/2000/svg" xmlns:xlink="http://www.w3.org/1999/xlink" x="0px" y="0px"
	 viewBox="0 0 160 120" style="enable-background:new 0 0 160 120;" xml:space="preserve">
<style type="text/css">
	.st0{fill-rule:evenodd;clip-rule:evenodd;}
</style>
<path class="st0" d="M27.8,59.3l0.7-3.9h1.6c1.2,0,3,0.2,2.7,1.8c-0.3,1.5-1.3,2.1-2.7,2.1H27.8L27.8,59.3z M26.1,68.9l1-5.5H30
	c5,0,7.7-2.4,8.4-6.1c0.6-3.6-1.4-5.9-6.4-5.9h-8.4l-3.1,17.5H26.1L26.1,68.9z"/>
<path class="st0" d="M45.4,62.9h-3.6l2.9-6.3L45.4,62.9L45.4,62.9z M39,68.9l1.1-2.3h5.7l0.3,2.3h5.7l-3.2-17.5h-5.8l-9.4,17.5H39
	L39,68.9z"/>
<polygon class="st0" points="60.4,62.4 68.9,51.4 62.6,51.4 58.5,57.3 56.5,51.4 50.2,51.4 54.7,62.5 53.6,68.9 59.3,68.9 
	60.4,62.4 "/>
<path class="st0" d="M82.6,58c0.3-4.5-2.2-7.1-7.6-7.1c-4.9,0-9.3,3.5-10.3,9.2c-1,5.7,1.9,9.2,7.7,9.2c4.6,0,8.3-2.7,9.6-7.2h-5.5
	C76,63.8,74.9,65,73.1,65c-2.9,0-3.1-2.3-2.6-4.8c0.6-3.4,2.1-5.1,4.2-5.1c1.8,0,2.8,1.1,2.6,2.8H82.6L82.6,58z"/>
<polygon class="st0" points="87.4,68.9 88.6,62.1 94,62.1 92.8,68.9 98.5,68.9 101.6,51.4 95.9,51.4 94.8,57.3 89.4,57.3 90.4,51.4 
	84.7,51.4 81.6,68.9 87.4,68.9 "/>
<polygon class="st0" points="115,68.9 115.7,64.8 106.9,64.8 107.4,62 114.6,62 115.3,57.9 108.1,57.9 108.5,55.4 117,55.4 
	117.8,51.4 103.5,51.4 100.4,68.9 115,68.9 "/>
<polygon class="st0" points="124.8,63.9 126.8,68.9 133.2,68.9 128.9,59.8 136.3,51.4 129.8,51.4 126.5,55.8 124.8,51.4 118.4,51.4 
	122.5,59.8 114.7,68.9 121.2,68.9 124.8,63.9 "/>
<path class="st0" d="M138,53.3h0.2l0.4,0.7h0.4l-0.4-0.8c0.2,0,0.4-0.1,0.4-0.4c0-0.4-0.3-0.5-0.7-0.5h-0.7V54h0.4V53.3L138,53.3z
	 M138,53v-0.4h0.3c0.1,0,0.3,0,0.3,0.2c0,0.2-0.1,0.2-0.3,0.2H138L138,53z M139.9,53.2c0-1-0.7-1.6-1.6-1.6c-0.8,0-1.6,0.6-1.6,1.6
	c0,1,0.8,1.6,1.6,1.6C139.1,54.8,139.9,54.2,139.9,53.2L139.9,53.2L139.9,53.2z M139.4,53.2c0,0.7-0.5,1.2-1.1,1.2l0,0
	c-0.7,0-1.1-0.5-1.1-1.2c0-0.7,0.5-1.2,1.1-1.2C138.8,51.9,139.4,52.4,139.4,53.2L139.4,53.2L139.4,53.2z"/>
</svg>
