<svg id="Layer_1" data-name="Layer 1" xmlns="http://www.w3.org/2000/svg" viewBox="0 0 160 120"><title>Artboard 1</title><path d="M55.57,57.68H53.64v5.57a.2.2,0,0,1-.2.19h-1a.19.19,0,0,1-.19-.19V57.68H50.36a.18.18,0,0,1-.19-.17v-.77a.19.19,0,0,1,.19-.18h5.22a.19.19,0,0,1,.19.18v.77a.18.18,0,0,1-.19.17m7,5.76h-1a.2.2,0,0,1-.2-.19V60.44H58.34v2.81a.19.19,0,0,1-.19.19h-1a.19.19,0,0,1-.19-.19V56.74a.19.19,0,0,1,.19-.18h1a.18.18,0,0,1,.19.18v2.52h3.07V56.74a.19.19,0,0,1,.2-.18h1a.19.19,0,0,1,.19.18v6.51A.2.2,0,0,1,62.57,63.44Zm4.8.08a2.84,2.84,0,0,1-3.08-3v-1a3.08,3.08,0,0,1,6.16,0v1A2.84,2.84,0,0,1,67.37,63.52Zm1.72-4a1.73,1.73,0,1,0-3.45,0v1a1.73,1.73,0,1,0,3.45,0Zm9.71,3.94h-1c-.09,0-.15-.1-.15-.19V59.06c0-.07,0-.1,0-.1l0,.06L76,62.48a.35.35,0,0,1-.31.17h-.5a.35.35,0,0,1-.31-.17L73.33,59l0-.06s0,0,0,.1v4.19a.18.18,0,0,1-.16.19h-1a.15.15,0,0,1-.17-.15V56.94a.39.39,0,0,1,.39-.39h.79a.41.41,0,0,1,.36.23l1.86,3.79c0,.09.07.14.11.14s.06,0,.11-.14l1.86-3.79a.41.41,0,0,1,.36-.23h.8a.39.39,0,0,1,.39.39v6.35A.15.15,0,0,1,78.81,63.44Zm21.3,0h-1a.52.52,0,0,1-.59-.35l-2.63-4.41c0-.06-.06-.08-.09-.08s0,0,0,.08v4.56a.19.19,0,0,1-.19.19h-.82a.19.19,0,0,1-.19-.19V56.94a.39.39,0,0,1,.39-.39h1c.2,0,.31.06.43.31l2.74,4.67s0,.08.08.08,0,0,0-.09V56.74a.18.18,0,0,1,.18-.18h.83a.18.18,0,0,1,.19.18v6.32A.39.39,0,0,1,100.11,63.44Zm-17,.08a10.52,10.52,0,0,1-2.19-.26.21.21,0,0,1-.18-.19v-.7a.19.19,0,0,1,.18-.19h0a17.54,17.54,0,0,0,2.19.17c.86,0,1.13-.31,1.13-.87,0-.73-1.73-1.13-2.58-1.48a1.73,1.73,0,0,1-1.14-1.69c0-1.07.86-1.84,2.66-1.84a9.49,9.49,0,0,1,2.1.26.2.2,0,0,1,.17.18v.72a.17.17,0,0,1-.16.18h0a20.52,20.52,0,0,0-2.15-.18c-.72,0-1.26.25-1.26.69s.36.61.79.78l1.64.65a1.78,1.78,0,0,1,1.35,1.74C85.69,62.47,85.07,63.52,83.13,63.52Zm6.85,0a2.84,2.84,0,0,1-3.08-3v-1a3.08,3.08,0,0,1,6.16,0v1A2.84,2.84,0,0,1,90,63.52Zm1.72-4a1.73,1.73,0,1,0-3.45,0v1a1.73,1.73,0,1,0,3.45,0Zm18.84,3.94h-1.18c-.11,0-.15-.1-.19-.19l-1.4-2.35h-.21l-1.26,0v2.39a.19.19,0,0,1-.18.19h-1a.19.19,0,0,1-.19-.19V56.89c0-.19.11-.26.31-.29a19.67,19.67,0,0,1,2.3-.13c1.49,0,2.87.53,2.87,2.19v.09a1.86,1.86,0,0,1-1.31,1.9l1.52,2.59a.12.12,0,0,1,0,.08A.11.11,0,0,1,110.55,63.44Zm-1.45-4.77c0-.73-.56-1-1.53-1-.2,0-1.09,0-1.26,0v2.1l1.26,0c1,0,1.53-.19,1.53-1Zm4.16,2.86c0,.81,0,.83.76.83h2.45a.19.19,0,0,1,.19.19v.62c0,.14,0,.19-.19.2a13,13,0,0,1-2.1.14c-1.61,0-2.46,0-2.46-2V58.46c0-2,.85-2,2.46-2a13.19,13.19,0,0,1,2.1.13c.14,0,.19.07.19.2v.62a.2.2,0,0,1-.19.19H114c-.73,0-.76,0-.76.83v.89h3.1a.19.19,0,0,1,.19.19v.7a.19.19,0,0,1-.19.19h-3.1Zm7.77,2c-1.56,0-2.9-.68-2.9-2.74v-4a.19.19,0,0,1,.19-.18h1a.19.19,0,0,1,.19.18v4c0,1.11.51,1.63,1.56,1.63s1.56-.52,1.56-1.63v-4a.19.19,0,0,1,.19-.18h1a.19.19,0,0,1,.2.18v4C123.92,62.84,122.58,63.52,121,63.52Zm9.28-5.84h-1.93v5.57a.2.2,0,0,1-.2.19h-1a.2.2,0,0,1-.19-.19V57.68h-1.94a.18.18,0,0,1-.19-.17v-.77a.19.19,0,0,1,.19-.18h5.22a.18.18,0,0,1,.19.18v.77A.18.18,0,0,1,130.3,57.68Zm13.17,5.76h-1.18c-.11,0-.14-.1-.19-.19l-1.4-2.35h-.22l-1.26,0v2.39a.19.19,0,0,1-.18.19h-1a.2.2,0,0,1-.19-.19V56.89c0-.19.12-.26.31-.29a19.66,19.66,0,0,1,2.3-.13c1.49,0,2.87.53,2.87,2.19v.09a1.86,1.86,0,0,1-1.31,1.9l1.52,2.59a.13.13,0,0,1,0,.08A.11.11,0,0,1,143.47,63.44ZM142,58.67c0-.73-.57-1-1.54-1-.2,0-1.09,0-1.26,0v2.1l1.26,0c1,0,1.54-.19,1.54-1Zm5.15,4.86a10.51,10.51,0,0,1-2.19-.26.21.21,0,0,1-.18-.19v-.7a.19.19,0,0,1,.18-.19h0a17.57,17.57,0,0,0,2.19.17c.86,0,1.13-.31,1.13-.87,0-.73-1.74-1.13-2.58-1.48a1.74,1.74,0,0,1-1.14-1.69c0-1.07.86-1.84,2.66-1.84a9.5,9.5,0,0,1,2.1.26.2.2,0,0,1,.17.18v.72a.17.17,0,0,1-.17.18h0a20.52,20.52,0,0,0-2.15-.18c-.72,0-1.26.25-1.26.69s.36.61.8.78l1.64.65a1.78,1.78,0,0,1,1.35,1.74C149.72,62.47,149.11,63.52,147.17,63.52Zm-14.34-2c0,.81,0,.83.76.83H136a.19.19,0,0,1,.19.19v.62c0,.14,0,.19-.19.2a13,13,0,0,1-2.1.14c-1.61,0-2.46,0-2.46-2V58.46c0-2,.85-2,2.46-2a13.21,13.21,0,0,1,2.1.13c.14,0,.19.07.19.2v.62a.2.2,0,0,1-.19.19h-2.46c-.74,0-.76,0-.76.83v.89h3.1a.19.19,0,0,1,.19.19v.7a.19.19,0,0,1-.19.19h-3.1Z"/><path d="M33.58,54.34a1.07,1.07,0,1,1,0-1.52,1.07,1.07,0,0,1,0,1.52M22.92,51.91a.53.53,0,1,0,0,.74A.53.53,0,0,0,22.92,51.91Zm2.67-1a.65.65,0,1,0,0,.92A.65.65,0,0,0,25.59,50.89Zm2.87-.21a.83.83,0,1,0,0,1.17A.83.83,0,0,0,28.46,50.68Zm2.71.69a.93.93,0,1,0,0,1.32A.93.93,0,0,0,31.17,51.37ZM20.65,53.69a.39.39,0,1,0,0,.56A.39.39,0,0,0,20.65,53.69Zm13.69,9.7a.53.53,0,1,0,.75,0A.53.53,0,0,0,34.34,63.39ZM35,60.67a.65.65,0,1,0,.92,0A.65.65,0,0,0,35,60.67Zm-.21-2.87a.83.83,0,1,0,1.17,0A.83.83,0,0,0,34.81,57.8Zm-1-2.66a.93.93,0,1,0,1.31,0A.93.93,0,0,0,33.81,55.14Zm-.92,10.62a.39.39,0,0,0,0,.56.39.39,0,1,0,0-.56ZM21.53,67.13a1.07,1.07,0,1,0-1.51,0A1.07,1.07,0,0,0,21.53,67.13ZM19.22,56.61a.53.53,0,1,0-.74,0A.53.53,0,0,0,19.22,56.61Zm-.68,2.73a.65.65,0,1,0-.92,0A.66.66,0,0,0,18.54,59.33Zm.21,2.87a.83.83,0,1,0-1.17,0A.83.83,0,0,0,18.75,62.2Zm1,2.66a.93.93,0,1,0-1.32,0A.93.93,0,0,0,19.75,64.86Zm10.89,3.23a.53.53,0,1,0,0-.75A.53.53,0,0,0,30.64,68.09Zm-2.67,1a.65.65,0,1,0,0-.92A.65.65,0,0,0,28,69.11Zm-2.87.21a.83.83,0,1,0,0-1.17A.82.82,0,0,0,25.1,69.31Zm-2.71-.69a.93.93,0,1,0,0-1.31A.93.93,0,0,0,22.39,68.62Zm7-14.71a.83.83,0,1,1-.56-1A.83.83,0,0,1,29.44,53.92Zm-8,2a.42.42,0,0,0-.51.28.41.41,0,1,0,.51-.28Zm1.45-1.59a.51.51,0,1,0,.35.63A.51.51,0,0,0,22.9,54.29Zm1.85-1.12a.64.64,0,1,0,.44.8A.65.65,0,0,0,24.75,53.17Zm2-.46a.73.73,0,1,0,.49.9A.72.72,0,0,0,26.8,52.71Zm-6.26,5.13a.31.31,0,0,0-.38.21.31.31,0,1,0,.59.17A.31.31,0,0,0,20.54,57.85ZM33,59.7a.41.41,0,1,0,.51-.28A.41.41,0,0,0,33,59.7Zm-.48-2.06a.51.51,0,1,0,.63-.34A.51.51,0,0,0,32.5,57.64Zm-1.12-1.85a.64.64,0,1,0,.8-.43A.64.64,0,0,0,31.38,55.79Zm-1.58-1.44a.73.73,0,1,0,.9-.49A.73.73,0,0,0,29.81,54.35Zm3,7.42a.31.31,0,0,0,.21.38.31.31,0,0,0,.17-.59A.31.31,0,0,0,32.81,61.77Zm-7.09,4.79a.83.83,0,1,0-1,.56A.83.83,0,0,0,25.72,66.56ZM20.58,60.3a.41.41,0,0,0-.28-.51.42.42,0,0,0-.51.28.41.41,0,0,0,.79.23Zm.48,2.06a.51.51,0,0,0-1-.28.51.51,0,1,0,1,.28Zm1.12,1.85a.65.65,0,0,0-.44-.8.65.65,0,1,0,.44.8Zm1.57,1.44a.72.72,0,1,0-.9.49A.73.73,0,0,0,23.75,65.65Zm8.35-1.53a.41.41,0,1,0-.28-.51A.41.41,0,0,0,32.11,64.12Zm-1.44,1.59a.51.51,0,0,0,.29-1,.51.51,0,1,0-.29,1Zm-1.85,1.12a.65.65,0,1,0-.44-.8A.65.65,0,0,0,28.81,66.83Zm-2,.46a.72.72,0,1,0-.49-.9A.72.72,0,0,0,26.76,67.28Zm-1.7-11.82a.65.65,0,1,1-.88-.26A.65.65,0,0,1,25.07,55.46Zm-3.2,5.06a.38.38,0,0,0-.15.52.38.38,0,0,0,.67-.36A.39.39,0,0,0,21.87,60.53ZM21.8,59a.44.44,0,0,0,.43.78.45.45,0,0,0,.18-.6A.44.44,0,0,0,21.8,59Zm.4-1.5a.51.51,0,1,0,.69.2A.51.51,0,0,0,22.21,57.47Zm.82-1.3a.57.57,0,1,0,.77.23A.57.57,0,0,0,23,56.17ZM22.4,62a.32.32,0,0,0-.13.43A.32.32,0,1,0,22.4,62Zm7.36-5.3a.38.38,0,1,0,.67-.36.38.38,0,0,0-.67.36Zm-1.29-.82a.44.44,0,1,0,.18-.61A.45.45,0,0,0,28.47,55.88ZM27,55.48a.5.5,0,0,0,.68.2.5.5,0,1,0-.68-.2Zm-1.56.06a.57.57,0,1,0,.23-.77A.57.57,0,0,0,25.41,55.54Zm5.32,2.33a.31.31,0,0,0,.55-.3.32.32,0,0,0-.43-.14A.33.33,0,0,0,30.73,57.86Zm-1.1,6.06a.65.65,0,1,0-1.14.61.65.65,0,1,0,1.14-.61Zm-5.84-.63a.38.38,0,0,0-.51-.15.38.38,0,0,0-.15.51.37.37,0,0,0,.51.15A.38.38,0,0,0,23.8,63.29Zm1.29.82a.44.44,0,0,0-.6-.18.44.44,0,0,0,.42.78A.45.45,0,0,0,25.09,64.12Zm1.5.4a.51.51,0,1,0-.21.69A.5.5,0,0,0,26.59,64.52Zm1.56-.06a.57.57,0,0,0-.78-.23.57.57,0,1,0,.78.23Zm3.54-5a.39.39,0,0,0,.16-.52.38.38,0,1,0-.16.52ZM31.76,61a.44.44,0,0,0-.42-.78.44.44,0,1,0,.42.78Zm-.41,1.5a.51.51,0,1,0-.69-.2A.51.51,0,0,0,31.35,62.52Zm-.82,1.29a.57.57,0,1,0-.77-.23A.57.57,0,0,0,30.53,63.81Zm11.08-2.15A1.66,1.66,0,1,1,43.27,60,1.66,1.66,0,0,1,41.61,61.66ZM35.09,47.34A.92.92,0,1,0,34,48,.91.91,0,0,0,35.09,47.34Zm3.27,2.34a1.11,1.11,0,1,0-1.27.92A1.11,1.11,0,0,0,38.36,49.68Zm2.64,3A1.38,1.38,0,1,0,39.48,54,1.38,1.38,0,0,0,41,52.73Zm1.63,3.51A1.53,1.53,0,1,0,41,57.68,1.52,1.52,0,0,0,42.63,56.24ZM27.45,45.17a.67.67,0,1,0-.67.67A.67.67,0,0,0,27.45,45.17ZM34,72a.92.92,0,1,0,1.09.7A.92.92,0,0,0,34,72Zm3.09-2.56a1.11,1.11,0,1,0,1.27.92A1.11,1.11,0,0,0,37.09,69.39ZM39.48,66A1.38,1.38,0,1,0,41,67.27,1.39,1.39,0,0,0,39.48,66ZM41,62.32a1.53,1.53,0,1,0,1.6,1.44A1.53,1.53,0,0,0,41,62.32ZM26.78,74.17a.67.67,0,1,0,.67.67A.67.67,0,0,0,26.78,74.17ZM11.95,61.66A1.66,1.66,0,1,0,10.28,60,1.66,1.66,0,0,0,11.95,61.66ZM19.55,48a.92.92,0,1,0-1.09-.7A.92.92,0,0,0,19.55,48Zm-3.09,2.56a1.11,1.11,0,1,0-1.27-.92A1.11,1.11,0,0,0,16.46,50.61ZM14.08,54a1.38,1.38,0,1,0-1.52-1.23A1.39,1.39,0,0,0,14.08,54Zm-1.55,3.72a1.53,1.53,0,1,0-1.61-1.45A1.53,1.53,0,0,0,12.53,57.68Zm5.94,15A.92.92,0,1,0,19.55,72,.92.92,0,0,0,18.46,72.66Zm-3.27-2.34a1.11,1.11,0,1,0,1.27-.92A1.11,1.11,0,0,0,15.19,70.31Zm-2.64-3A1.38,1.38,0,1,0,14.08,66,1.38,1.38,0,0,0,12.56,67.27Zm-1.64-3.51a1.53,1.53,0,1,0,1.61-1.44A1.52,1.52,0,0,0,10.92,63.76Zm19.51,9.88a.72.72,0,1,0,.88.51A.72.72,0,0,0,30.43,73.64Zm-7.31,0a.72.72,0,1,0,.51.88A.72.72,0,0,0,23.12,73.64Zm8.19-27.78a.72.72,0,1,0-.88.51A.71.71,0,0,0,31.31,45.86Zm-7.68-.37a.72.72,0,1,0-.51.88A.71.71,0,0,0,23.63,45.49ZM37.93,56.6a1.3,1.3,0,1,1,.68-1.71A1.3,1.3,0,0,1,37.93,56.6Zm-9.1-8.25a.71.71,0,1,0-.56.84A.71.71,0,0,0,28.82,48.35ZM31.9,49a.87.87,0,1,0-.62,1.05A.86.86,0,0,0,31.9,49Zm2.83,1.37A1.08,1.08,0,1,0,34,51.74,1.08,1.08,0,0,0,34.73,50.39Zm2.26,2a1.19,1.19,0,1,0-.71,1.53A1.19,1.19,0,0,0,37,52.4ZM22.67,49.16a.52.52,0,1,0-.27.68A.52.52,0,0,0,22.67,49.16Zm13,17.17a.72.72,0,1,0,1,.17A.71.71,0,0,0,35.66,66.33Zm1.42-2.79a.87.87,0,1,0,1.2.27A.87.87,0,0,0,37.08,63.54Zm.67-3.14a1.08,1.08,0,1,0,1.47.41A1.08,1.08,0,0,0,37.75,60.4Zm0-3.15a1.19,1.19,0,1,0,1.6.54A1.19,1.19,0,0,0,37.71,57.25Zm-6.55,12.9a.52.52,0,1,0,.69.27A.52.52,0,0,0,31.16,70.16Zm-14.5-4.38A1.3,1.3,0,1,0,15,65.1,1.3,1.3,0,0,0,16.66,65.78ZM17.9,53.66a.71.71,0,1,0-1-.17A.72.72,0,0,0,17.9,53.66Zm-1.42,2.79a.87.87,0,1,0-1.19-.27A.87.87,0,0,0,16.48,56.46ZM15.8,59.6a1.08,1.08,0,1,0-1.47-.41A1.08,1.08,0,0,0,15.8,59.6Zm0,3.15a1.19,1.19,0,1,0-1.6-.54A1.19,1.19,0,0,0,15.84,62.75Zm8.89,8.9a.72.72,0,1,0,.56-.84A.71.71,0,0,0,24.73,71.65ZM21.66,71a.87.87,0,1,0,.62-1.05A.86.86,0,0,0,21.66,71Zm-2.83-1.37a1.08,1.08,0,1,0,.71-1.35A1.07,1.07,0,0,0,18.83,69.61Zm-2.26-2a1.19,1.19,0,1,0,.7-1.53A1.19,1.19,0,0,0,16.57,67.6Zm17,1.05a.56.56,0,1,0,.79.09A.56.56,0,0,0,33.61,68.65Zm-5.24,2.26a.56.56,0,1,0,.64.47A.56.56,0,0,0,28.37,70.91ZM25.65,48.46a.56.56,0,1,0-.47.63A.56.56,0,0,0,25.65,48.46ZM20,50.57a.56.56,0,1,0-.09.79A.56.56,0,0,0,20,50.57Z"/></svg>