<svg id="Layer_1" data-name="Layer 1" xmlns="http://www.w3.org/2000/svg" viewBox="0 0 160 120"><defs><style>.cls-1{fill-rule:evenodd;}</style></defs><title>Artboard 1 copy 5</title><path class="cls-1" d="M50.82,52.08a7.94,7.94,0,0,0-15.87,0H50.82Z"/><path class="cls-1" d="M50.82,67.88a7.94,7.94,0,1,1-15.87,0H50.82Z"/><path class="cls-1" d="M42,60a8,8,0,0,0-7.14,8,7.94,7.94,0,0,1,0-15.87A7.94,7.94,0,0,0,42,60Z"/><path class="cls-1" d="M43.8,60a8,8,0,0,1,7.14,8A7.94,7.94,0,0,0,50.9,52,7.9,7.9,0,0,1,43.8,60Z"/><path class="cls-1" d="M97.22,54.78H99c.61,0,1.92,0,1.92,1.55a1.74,1.74,0,0,1-1.92,2H97.22v.49l5.3,8.24H107l-4.65-6.9a4.16,4.16,0,0,0,2.57-4.28,4,4,0,0,0-4.24-4.24H93.47V67.06h3.75V54.78Z"/><path class="cls-1" d="M117.87,62.82c-1.18,1.14-2.41,1.26-4.33,1.26a4.46,4.46,0,0,1-4.28-4.77c0-2.77,1.92-5.06,4.28-5.06a6.17,6.17,0,0,1,4.33,1.43h0V52a8.8,8.8,0,0,0-4.33-1c-4.57,0-8.24,2.77-8.24,8.37,0,5.35,3.67,8.24,8.24,8.24a10.72,10.72,0,0,0,4.37-.78h0l0-4Z"/><polygon class="cls-1" points="118.85 67.06 118.85 51.63 122.64 51.63 122.64 58.33 127.62 51.63 132.11 51.63 127.3 58.73 133.01 67.06 128.28 67.06 122.64 58.9 122.64 67.06 118.85 67.06 118.85 67.06"/><polygon class="cls-1" points="65.68 67.06 69.31 67.06 69.31 56.94 73.92 67.51 78.61 56.86 78.61 67.06 82.37 67.06 82.37 51.63 76.82 51.63 73.92 58.45 70.98 51.63 65.68 51.63 65.68 67.06 65.68 67.06"/><polygon class="cls-1" points="83.39 51.63 92.65 51.63 92.65 54.78 87.18 54.78 87.18 57.59 92.16 57.59 92.16 60.77 87.18 60.77 87.18 63.88 92.65 63.88 92.65 67.06 83.39 67.06 83.39 51.63 83.39 51.63"/></svg>