<svg id="Layer_1" data-name="Layer 1" xmlns="http://www.w3.org/2000/svg" viewBox="0 0 160 120"><defs><style>.cls-1{fill:#fff;}</style></defs><title>Artboard 1 copy 8</title><path d="M41.21,45.34Q49.75,38.63,58.33,32l42,4c6.79.64,13.58,1.31,20.37,1.93-.08,1.53-.28,3.05-.4,4.58Q118.14,65.26,116,88,84.74,85.14,53.5,82.2L39.64,66c-.12-.18-.37-.32-.33-.57Q40.26,55.39,41.21,45.34Zm1.07.49c-.14.59-.13,1.22-.21,1.83q-.87,8.77-1.73,17.54L54,81.07l61.06,5.84q2.24-24,4.5-48c-6.52-.64-13-1.25-19.56-1.88q-20.65-2-41.31-4C53.24,37.35,47.74,41.57,42.28,45.82Z"/><path d="M51.92,41.73c3.08.29,6.16.61,9.24.91a14.17,14.17,0,0,1,4.94,1.25,3.84,3.84,0,0,1,2.18,2.17,3.41,3.41,0,0,1-1.19,3.41,5.29,5.29,0,0,1-1.64.84,5.35,5.35,0,0,1,2.65,1.83,3.06,3.06,0,0,1,0,3.63,5.25,5.25,0,0,1-3.17,1.6A24.2,24.2,0,0,1,58,57.24l-7.44-.76Zm6.43,6.37A4.6,4.6,0,0,0,61,48a.87.87,0,0,0,.14-1.46,4.7,4.7,0,0,0-2.61-.42C58.46,46.76,58.39,47.43,58.35,48.1ZM58,51.23c-.05.8-.12,1.61-.16,2.41a7.76,7.76,0,0,0,3,.06,1.11,1.11,0,0,0,.94-1A1.2,1.2,0,0,0,61,51.64,7.81,7.81,0,0,0,58,51.23Z"/><path d="M70.4,43.58,84.21,44.9c-.13,1.38-.26,2.76-.4,4.14l-6.22-.59c0,.44-.09.89-.12,1.33l5.67.54c-.12,1.26-.24,2.53-.36,3.79-1.88-.18-3.76-.37-5.65-.53,0,.5-.09,1-.14,1.5l6.36.61c-.12,1.31-.26,2.61-.37,3.92-4.64-.42-9.28-.89-13.92-1.32Q69.73,50.93,70.4,43.58Z"/><path d="M90.37,45.84a15.35,15.35,0,0,1,7.18.41A13.59,13.59,0,0,1,101,47.71c-.75,1.17-1.58,2.3-2.38,3.43a8.78,8.78,0,0,0-3.5-1.34A3.9,3.9,0,0,0,93,50c-.2.08-.45.36-.23.56a3.1,3.1,0,0,0,1.08.57c1.43.5,2.91.83,4.35,1.3a3.92,3.92,0,0,1,2.56,4.21,4.35,4.35,0,0,1-2.38,3.08,12,12,0,0,1-6.33,1.12,22.79,22.79,0,0,1-8.42-2.2c.86-1.29,1.74-2.57,2.61-3.85a8.48,8.48,0,0,0,3,1.54,7.3,7.3,0,0,0,3,.4c.35-.08.83-.15,1-.54s-.27-.48-.49-.63a8.36,8.36,0,0,0-2-.63,11,11,0,0,1-4.35-1.82,3.4,3.4,0,0,1-.12-5.18A8.48,8.48,0,0,1,90.37,45.84Z"/><path d="M101.63,46.61c5.22.45,10.45,1,15.67,1.48-.14,1.6-.3,3.19-.45,4.79-1.36-.13-2.71-.27-4.07-.38-.31,3.31-.63,6.63-.95,9.94l-7.42-.71c.28-3.32.57-6.64.84-10-1.35-.13-2.7-.27-4-.38C101.31,49.8,101.52,48.21,101.63,46.61Z"/><path d="M45.1,53.63a2.76,2.76,0,1,1-2,1.6A2.77,2.77,0,0,1,45.1,53.63Zm0,1a1.75,1.75,0,1,0,2.26,1.45A1.76,1.76,0,0,0,45.09,54.68Z"/><path d="M53.41,58.64c3.37.31,6.73.66,10.1,1A12.89,12.89,0,0,1,68.05,61a3.32,3.32,0,0,1,1.77,2.1,3.49,3.49,0,0,1-.75,2.77,4.24,4.24,0,0,1-2.12,1.28,5.66,5.66,0,0,1,2.69,1.91,3.06,3.06,0,0,1,0,3.5,4.6,4.6,0,0,1-2.53,1.5,16.57,16.57,0,0,1-6.05.2c-3-.28-6-.61-9-.91C52.48,68.48,53,63.56,53.41,58.64ZM59.76,65a5.43,5.43,0,0,0,2.37,0,1,1,0,0,0,.78-.82.85.85,0,0,0-.51-.88A5.39,5.39,0,0,0,60,63C59.88,63.62,59.83,64.29,59.76,65Zm-.3,3.14c-.05.8-.11,1.6-.16,2.41a7.68,7.68,0,0,0,3,.07,1.13,1.13,0,0,0,1-.9,1.14,1.14,0,0,0-.82-1.13A7.68,7.68,0,0,0,59.46,68.09Z"/><path d="M71.55,60.39l7.19.65q-.37,4-.74,8.06a3,3,0,0,0,0,1.47,1.63,1.63,0,0,0,1.33,1,2.43,2.43,0,0,0,2-.34,2,2,0,0,0,.64-1.52c.25-2.75.52-5.49.78-8.24,2.39.2,4.78.49,7.18.65a6.15,6.15,0,0,1-.06,1.09c-.28,2.9-.54,5.81-.84,8.7a5.59,5.59,0,0,1-3.18,3.6,12.68,12.68,0,0,1-6.47.81,12.63,12.63,0,0,1-6.11-2,5.89,5.89,0,0,1-2.6-4.41C70.93,66.74,71.25,63.56,71.55,60.39Z"/><path d="M90,62.39l.18-.21c2.68.26,5.37.5,8.05.74.72,1.34,1.38,2.71,2.08,4.06.9-1.19,1.77-2.41,2.66-3.6l8.37.8-7.43,7.36c-.16.18-.42.33-.4.6-.19,2-.39,4.07-.58,6.1-2.45-.23-4.9-.47-7.35-.69.18-2.07.41-4.13.58-6.2-.57-.94-1.24-1.83-1.85-2.75-1.37-2-2.75-4-4.11-6Z"/><path d="M112.07,64.66a1.19,1.19,0,1,1-.63,1.49A1.2,1.2,0,0,1,112.07,64.66Zm.11.21a1,1,0,0,0,.06,1.78.93.93,0,0,0,1.22-1A.9.9,0,0,0,112.18,64.87Z"/><path d="M112.16,65c.3.05.67,0,.9.21a.41.41,0,0,1-.31.63l.29.59c-.38.06-.38-.43-.57-.65-.27,0-.11.4-.18.58H112C112.07,65.92,112.12,65.48,112.16,65Zm.25.19-.07.39c.19,0,.52.13.54-.16S112.56,65.28,112.41,65.22Z"/><path class="cls-1" d="M42.28,45.82c5.47-4.25,11-8.47,16.43-12.72Q79.36,35,100,37.06c6.52.63,13,1.25,19.56,1.88q-2.25,24-4.5,48L54,81.07,40.33,65.19q.87-8.77,1.73-17.54C42.15,47,42.14,46.41,42.28,45.82Zm9.65-4.09L50.54,56.48l7.44.76a24.2,24.2,0,0,0,6.94.11,5.25,5.25,0,0,0,3.17-1.6,3.06,3.06,0,0,0,0-3.63,5.35,5.35,0,0,0-2.65-1.83,5.29,5.29,0,0,0,1.64-.84,3.41,3.41,0,0,0,1.19-3.41,3.84,3.84,0,0,0-2.18-2.17,14.17,14.17,0,0,0-4.94-1.25C58.08,42.34,55,42,51.92,41.73ZM70.4,43.58q-.67,7.35-1.34,14.7c4.64.43,9.28.9,13.92,1.32.12-1.31.25-2.61.37-3.92L77,55.07c0-.5.1-1,.14-1.5,1.88.16,3.76.35,5.65.53.12-1.27.24-2.53.36-3.79l-5.67-.54c0-.45.08-.89.12-1.33l6.22.59c.13-1.38.27-2.76.4-4.14Zm20,2.25a8.48,8.48,0,0,0-4.12,2.05,3.4,3.4,0,0,0,.12,5.18,11,11,0,0,0,4.35,1.82,8.36,8.36,0,0,1,2,.63c.22.14.49.33.49.63s-.62.46-1,.54a7.3,7.3,0,0,1-3-.4,8.48,8.48,0,0,1-3-1.54c-.87,1.29-1.75,2.56-2.61,3.85a22.79,22.79,0,0,0,8.42,2.2,12,12,0,0,0,6.33-1.12,4.35,4.35,0,0,0,2.38-3.08,3.92,3.92,0,0,0-2.56-4.21c-1.44-.47-2.92-.8-4.35-1.3a3.1,3.1,0,0,1-1.08-.57c-.21-.2,0-.48.23-.56a3.9,3.9,0,0,1,2.06-.16,8.78,8.78,0,0,1,3.5,1.34c.8-1.14,1.63-2.26,2.38-3.43a13.59,13.59,0,0,0-3.42-1.47A15.35,15.35,0,0,0,90.37,45.84Zm11.26.78c-.11,1.6-.32,3.18-.43,4.78,1.35.11,2.7.25,4,.38-.28,3.32-.57,6.64-.84,10l7.42.71c.31-3.31.64-6.63.95-9.94,1.36.11,2.72.25,4.07.38.15-1.6.31-3.19.45-4.79C112.07,47.6,106.85,47.07,101.63,46.61Zm-56.53,7a2.77,2.77,0,1,0,2.6.91A2.78,2.78,0,0,0,45.1,53.63Zm8.31,5C53,63.56,52.48,68.48,52,73.39c3,.3,6,.63,9,.91a16.57,16.57,0,0,0,6.05-.2,4.6,4.6,0,0,0,2.53-1.5,3.06,3.06,0,0,0,0-3.5,5.66,5.66,0,0,0-2.69-1.91,4.24,4.24,0,0,0,2.12-1.28,3.49,3.49,0,0,0,.75-2.77A3.32,3.32,0,0,0,68.05,61a12.89,12.89,0,0,0-4.55-1.4C60.14,59.3,56.77,59,53.41,58.64Zm18.14,1.74c-.3,3.18-.62,6.35-.9,9.53a5.89,5.89,0,0,0,2.6,4.41,12.63,12.63,0,0,0,6.11,2,12.68,12.68,0,0,0,6.47-.81A5.59,5.59,0,0,0,89,71.9c.3-2.9.56-5.8.84-8.7a6.15,6.15,0,0,0,.06-1.09c-2.39-.16-4.78-.45-7.18-.65-.26,2.75-.53,5.49-.78,8.24a2,2,0,0,1-.64,1.52,2.43,2.43,0,0,1-2,.34,1.63,1.63,0,0,1-1.33-1,3,3,0,0,1,0-1.47q.37-4,.74-8.06Zm18.42,2,.2.19c1.36,2,2.74,4,4.11,6,.61.92,1.28,1.81,1.85,2.75-.17,2.07-.39,4.13-.58,6.2,2.45.22,4.9.47,7.35.69.19-2,.39-4.07.58-6.1,0-.27.24-.42.4-.6l7.43-7.36-8.37-.8c-.9,1.19-1.77,2.41-2.66,3.6-.7-1.35-1.36-2.72-2.08-4.06-2.68-.24-5.37-.48-8.05-.74Zm22.1,2.27a1.19,1.19,0,1,0,1.64.79A1.19,1.19,0,0,0,112.07,64.66Z"/><path class="cls-1" d="M58.35,48.1c0-.67.11-1.34.19-2a4.7,4.7,0,0,1,2.61.42A.87.87,0,0,1,61,48,4.6,4.6,0,0,1,58.35,48.1Z"/><path class="cls-1" d="M58,51.23a7.81,7.81,0,0,1,2.91.42,1.2,1.2,0,0,1,.88,1.08,1.11,1.11,0,0,1-.94,1,7.76,7.76,0,0,1-3-.06C57.93,52.83,58,52,58,51.23Z"/><path class="cls-1" d="M59.76,65c.07-.67.11-1.34.2-2a5.39,5.39,0,0,1,2.44.32.85.85,0,0,1,.51.88,1,1,0,0,1-.78.82A5.43,5.43,0,0,1,59.76,65Z"/><path class="cls-1" d="M112.18,64.87a.9.9,0,0,1,1.28.8.93.93,0,0,1-1.22,1A1,1,0,0,1,112.18,64.87Zm0,.16c0,.45-.09.9-.13,1.35h.25c.07-.17-.08-.58.18-.58.19.22.18.71.57.65l-.29-.59a.41.41,0,0,0,.31-.63C112.83,65,112.46,65.08,112.16,65Z"/><path class="cls-1" d="M112.41,65.22c.15.06.45,0,.47.23s-.35.18-.54.16Z"/><path class="cls-1" d="M59.46,68.09a7.68,7.68,0,0,1,3,.44,1.14,1.14,0,0,1,.82,1.13,1.13,1.13,0,0,1-1,.9,7.68,7.68,0,0,1-3-.07C59.35,69.7,59.41,68.9,59.46,68.09Z"/></svg>