<?xml version="1.0" encoding="utf-8"?>
<!-- Generator: Adobe Illustrator 21.1.0, SVG Export Plug-In . SVG Version: 6.00 Build 0)  -->
<!DOCTYPE svg PUBLIC "-//W3C//DTD SVG 1.1//EN" "http://www.w3.org/Graphics/SVG/1.1/DTD/svg11.dtd">
<svg version="1.1" id="Layer_1" xmlns="http://www.w3.org/2000/svg" xmlns:xlink="http://www.w3.org/1999/xlink" x="0px" y="0px"
	 viewBox="0 0 160 120" style="enable-background:new 0 0 160 120;" xml:space="preserve">
<style type="text/css">
	.st0{clip-path:url(#SVGID_2_);}
	.st1{clip-path:url(#SVGID_2_);fill:#343741;}
</style>
<g>
	<defs>
		<rect id="SVGID_1_" x="5.3" y="30.4" width="151.7" height="60.3"/>
	</defs>
	<clipPath id="SVGID_2_">
		<use xlink:href="#SVGID_1_"  style="overflow:visible;"/>
	</clipPath>
	<path class="st0" d="M35.6,65.3c-0.1,0.3-0.2,0.6-0.2,0.9c-0.3,1.2-0.6,2.4-0.9,3.6l0.2,0.1c2.4,1.5,4.6,3,6.9,4.3
		c-0.2-0.4-0.4-0.9-0.7-1.3c-0.2-0.4-0.4-0.7-0.6-1.1c-0.4-0.8-0.8-1.5-1.1-2.3c-0.1-0.2-0.2-0.5-0.4-0.7c-0.5-1-1-2-1.5-3
		c-0.2-0.5-0.5-1-0.7-1.5c-0.2-0.4-0.3-0.7-0.5-1.1C35.9,63.9,35.7,64.6,35.6,65.3"/>
	<path class="st0" d="M42.2,74c0.3-2.2,0.6-4.3,0.8-6.3c-1.3-0.9-2.7-1.9-4-2.9c-0.2-0.1-0.4-0.2-0.5-0.4c-0.5-0.4-1-0.7-1.5-1.1
		C38.7,66.9,40.4,70.6,42.2,74"/>
	<path class="st0" d="M33.4,63c-0.8,0.2-1.6,0.3-2.5,0.5c-0.2,0-0.3,0.1-0.5,0.1c-0.7,0.2-1.4,0.3-2,0.5c-0.3,0.1-0.6,0.2-0.9,0.3
		c-0.4,0.1-0.8,0.2-1.2,0.4c2.4,1.4,4.9,3,7.5,4.6c0.6-2.4,1.1-4.6,1.7-6.8c-0.5,0.1-1,0.2-1.4,0.2C33.9,62.9,33.6,62.9,33.4,63"/>
	<path class="st0" d="M35,62c-2.6-1.8-4.7-3.2-6.6-4.4c-0.1,0.3-0.3,0.7-0.4,1.1c0,0.1-0.1,0.2-0.1,0.4c-0.4,1.2-0.9,2.4-1.3,3.7
		c0,0.1-0.1,0.3-0.1,0.4c-0.1,0.4-0.3,0.7-0.4,1.1C29.1,63.1,32.2,62.4,35,62"/>
	<path class="st0" d="M38,56.1c0.1,0.1,0.2,0.1,0.2,0.2c1.6,1.3,3.1,2.6,4.7,3.8c0,0,0,0,0.1,0.1c-0.1-0.1-0.1-0.2-0.2-0.3
		c-0.6-1.1-1.2-2.2-1.8-3.3c-0.1-0.2-0.2-0.4-0.3-0.7c-0.6-1-1.1-2.1-1.6-3.1c0,0,0-0.1-0.1-0.1C38.6,53.8,38.3,55,38,56.1"/>
	<path class="st0" d="M44,60.6l0.4-3.1c0,0-0.1-0.1-0.2-0.1c-0.5-0.5-1-1-1.6-1.5c-0.2-0.1-0.3-0.3-0.5-0.4
		c-0.7-0.6-1.3-1.3-2.1-1.9c0,0,0,0,0,0C41.4,55.9,42.7,58.3,44,60.6"/>
	<path class="st0" d="M42.6,60.9c-1.6-1.3-3.2-2.7-4.9-4c-0.4,1.6-0.9,3.2-1.3,4.8c0.1,0,0.2,0,0.3,0c1-0.1,1.9-0.2,2.9-0.3
		c0.1,0,0.2,0,0.3,0c1-0.1,1.9-0.1,2.9,0c0.1,0,0.2,0,0.3,0L42.6,60.9z"/>
	<path class="st0" d="M43.8,62.1c-2.2-0.1-4.4,0-6.8,0.3c0.7,0.5,1.3,0.9,2,1.4c1.4,1,2.8,2.1,4.3,3.1
		C43.4,65.2,43.6,63.7,43.8,62.1"/>
	<path class="st0" d="M41.3,52c0.2,0.1,0.4,0.1,0.6,0.2c0.6,0.2,1.2,0.4,1.8,0.7c0,0,0.1,0,0.1,0c-1.3-1.5-2.6-2.8-3.7-4
		c-0.3,0.8-0.5,1.7-0.8,2.5c0.1,0,0.2,0.1,0.4,0.1C40.2,51.7,40.8,51.9,41.3,52"/>
	<path class="st0" d="M44.6,56.6c0.1-0.8,0.2-1.7,0.3-2.5c-1.5-0.7-3.1-1.3-4.7-1.7C41.7,53.9,43.2,55.3,44.6,56.6"/>
	<path class="st0" d="M38.8,50.8c0.3-0.8,0.5-1.6,0.8-2.4c-1.4-1.4-2.7-2.6-4-3.8c0.2,0.4,0.4,0.8,0.6,1.2c0.8,1.5,1.6,3.1,2.4,4.6
		C38.6,50.5,38.7,50.6,38.8,50.8"/>
	<path class="st0" d="M37.6,50.2c-1.1-2.1-2.2-4.3-3.4-6.4c-0.4,0.9-0.8,1.7-1.2,2.6C34.5,47.5,36,48.8,37.6,50.2"/>
	<path class="st0" d="M18.8,57c-0.5,1.1-1,2.2-1.5,3.3c2.3,0.9,4.7,2,7.4,3.5c-0.1-0.2-0.2-0.4-0.2-0.6c-0.6-1.5-1.3-3-1.9-4.5
		c0-0.1-0.1-0.2-0.1-0.2c-0.6-1.5-1.2-2.9-1.9-4.3c-0.1-0.2-0.1-0.3-0.2-0.5c-0.4,0.9-0.8,1.7-1.2,2.5C19.1,56.5,18.9,56.8,18.8,57"
		/>
	<path class="st0" d="M25.4,63.7c0.9-2.4,1.6-4.5,2.4-6.5c-2.4-1.4-4.6-2.6-6.7-3.6C22.5,56.8,24,60.2,25.4,63.7"/>
	<path class="st0" d="M17.3,54.4c-0.9,0.4-1.8,0.8-2.7,1.3c-0.1,0.1-0.3,0.2-0.4,0.2c-0.7,0.4-1.5,0.8-2.2,1.3
		c-0.3,0.2-0.6,0.4-0.8,0.6c-0.4,0.3-0.7,0.5-1.1,0.8c1.9,0.1,4.1,0.6,6.5,1.5c1-2.2,2-4.4,3.1-6.6c-0.5,0.2-1,0.4-1.5,0.6
		C17.9,54.2,17.6,54.3,17.3,54.4"/>
	<path class="st0" d="M18,52.3c-0.4-0.1-0.8-0.3-1.2-0.4c-0.2-0.1-0.4-0.1-0.6-0.2c-0.6-0.2-1.1-0.3-1.7-0.4c0,0,0,0,0,0
		c-0.5-0.1-0.9-0.2-1.4-0.2c-1.1,2.1-2.1,4.3-3.1,6.3L10,57.7c2.8-2,5.9-3.7,9.3-4.9c-0.2-0.1-0.4-0.2-0.6-0.2
		C18.5,52.5,18.3,52.4,18,52.3"/>
	<path class="st0" d="M18.5,44.4c0.4,0.1,0.7,0.2,1.1,0.4c0.2,0.1,0.3,0.1,0.5,0.2c0.5,0.2,0.9,0.4,1.4,0.6c0.1,0,0.2,0.1,0.2,0.1
		c0.5,0.2,1,0.4,1.5,0.7c0.7-1.3,1.4-2.6,2.1-3.8c-0.5,0-0.9,0.1-1.4,0.1c-0.2,0-0.3,0-0.5,0c-0.7,0.1-1.5,0.2-2.2,0.4
		c-0.2,0-0.3,0.1-0.5,0.1c-0.5,0.1-1.1,0.3-1.6,0.4c-0.2,0.1-0.5,0.2-0.7,0.2c-0.2,0.1-0.5,0.2-0.7,0.3c0.1,0,0.2,0.1,0.3,0.1
		C18.1,44.2,18.3,44.3,18.5,44.4"/>
	<path class="st0" d="M22.2,40.5c-0.1-0.1-0.3-0.1-0.4-0.2c-0.7-0.3-1.4-0.6-2-0.8c-0.1,0-0.2-0.1-0.2-0.1c-0.8,1.2-1.6,2.6-2.4,4
		c2.4-0.9,4.9-1.5,7.5-1.7c-0.1,0-0.1-0.1-0.2-0.1C23.7,41.3,23,40.9,22.2,40.5"/>
	<path class="st0" d="M20.4,52c0.9-1.9,1.7-3.5,2.5-5c-2.1-1-4-1.8-5.8-2.3c0.5,1.1,1.1,2.3,1.6,3.5c0,0,0,0,0,0
		C19.3,49.5,19.8,50.7,20.4,52"/>
	<path class="st0" d="M19.7,52.2c-1.1-2.5-2.2-4.9-3.3-7.2c-0.9,1.7-1.9,3.5-2.9,5.5C15.4,50.7,17.5,51.3,19.7,52.2"/>
	<path class="st0" d="M27.5,41.7c0.7,0,1.4,0,2.2,0.1c0.1,0,0.3,0,0.4,0c0.8,0.1,1.7,0.2,2.5,0.4c0.1,0,0.2,0,0.2,0
		c-1.5-1.2-3-2.4-4.5-3.4c-0.1,0.1-0.1,0.2-0.2,0.3c-0.4,0.7-0.9,1.4-1.3,2.2c-0.1,0.1-0.1,0.2-0.2,0.3c0.1,0,0.3,0,0.4,0
		C27.2,41.7,27.3,41.7,27.5,41.7"/>
	<path class="st0" d="M33.7,43.2c-2.1-0.5-4.3-0.8-6.4-0.8c1.7,1,3.4,2.2,5.1,3.5C32.8,45,33.3,44.1,33.7,43.2"/>
	<path class="st0" d="M27.7,38.5c-1.6-1-3.2-2-4.7-2.7c0.4,0.7,0.8,1.3,1.1,2c0.1,0.2,0.2,0.3,0.3,0.5c0.5,1,1.1,2,1.6,3
		C26.6,40.3,27.1,39.4,27.7,38.5"/>
	<path class="st0" d="M20,38.8c1.6,0.6,3.3,1.4,5.1,2.3c-1-1.9-2-3.8-3-5.5C21.3,36.6,20.7,37.7,20,38.8"/>
	<path class="st0" d="M60,77.5c-5.4,0-9.3-4.1-9.3-9.2c0-5,3.9-9.2,9.3-9.2c5.5,0,9.3,4.1,9.3,9.2C69.3,73.3,65.4,77.5,60,77.5
		 M60,62c-3.5,0-6,2.8-6,6.3c0,3.5,2.5,6.3,6,6.3c3.5,0,6-2.8,6-6.3C66,64.9,63.5,62,60,62"/>
	<path class="st0" d="M78.8,71.5h-3.5v5.7h-3.1V59.5h7c4.1,0,6.7,2.3,6.7,6C85.9,69.4,82.8,71.5,78.8,71.5 M78.9,62.3h-3.6v6.4h3.6
		c2.4,0,3.8-1.3,3.8-3.2C82.8,63.4,81.3,62.3,78.9,62.3"/>
	<polygon class="st0" points="96.3,77.2 93.1,77.2 93.1,62.4 87.5,62.4 87.5,59.5 101.9,59.5 101.9,62.4 96.3,62.4 	"/>
	<path class="st0" d="M119.8,69.5c0,5.3-3,8-7.6,8c-4.6,0-7.6-2.7-7.6-7.8V59.5h3.1v10.1c0,3.3,1.7,5.1,4.5,5.1
		c2.8,0,4.5-1.7,4.5-4.9V59.5h3.1V69.5z"/>
	<polygon class="st0" points="132,72.9 131.9,72.9 126.3,64.5 126.3,77.2 123.2,77.2 123.2,59.5 126.6,59.5 132,67.8 137.4,59.5 
		140.7,59.5 140.7,77.2 137.6,77.2 137.6,64.5 	"/>
	<path class="st1" d="M145.4,59.1c1.1,0,2,0.9,2,2c0,1.1-0.9,2-2,2c-1.1,0-2-0.9-2-2C143.3,60.1,144.3,59.1,145.4,59.1 M145.4,62.9
		c0.9,0,1.6-0.8,1.6-1.7c0-1-0.7-1.7-1.6-1.7c-0.9,0-1.7,0.8-1.7,1.7C143.7,62.2,144.4,62.9,145.4,62.9 M144.6,60h0.9
		c0.5,0,0.8,0.2,0.8,0.7c0,0.4-0.2,0.7-0.6,0.7l0.7,1.1H146l-0.7-1.1H145v1.1h-0.4V60z M145,61h0.5c0.3,0,0.5-0.1,0.5-0.4
		c0-0.3-0.2-0.4-0.5-0.4H145V61z"/>
</g>
</svg>
