<svg id="Layer_1" data-name="Layer 1" xmlns="http://www.w3.org/2000/svg" viewBox="0 0 160 120"><defs><style>.cls-1{fill-rule:evenodd;}</style></defs><title>Artboard 1 copy 4</title><path class="cls-1" d="M83,67.9l-1.14-1.43a7.54,7.54,0,0,1-4.5,1.86A4.56,4.56,0,0,1,72.53,64c0-3,2.86-4.64,3.72-4.93a5.71,5.71,0,0,1-1.57-3.43c.07-2,1.29-3.57,3.93-3.57a3.72,3.72,0,0,1,4,3.72c0,2.5-1.93,3.36-2.5,3.86L82,62.32a5.72,5.72,0,0,0,.93-2.5h2.5S85,63,83.61,64.47l2.64,3.43ZM78.68,54.46a1.3,1.3,0,0,0-1.36,1.29c.07.86.79,1.43,1.21,2,.57-.43,1.57-1,1.57-1.93a1.37,1.37,0,0,0-1.43-1.36Zm-.93,6.64c-2.43,1.64-2.29,2.79-2.29,2.79a2,2,0,0,0,1.86,1.86,5.56,5.56,0,0,0,2.93-1.36l-2.5-3.29Z"/><path class="cls-1" d="M35,58.82a5.41,5.41,0,0,0-5.07-4.14A5.2,5.2,0,0,0,24.66,60a5.14,5.14,0,0,0,5.29,5.07,5,5,0,0,0,4.86-3.43h3c-.64,4.22-4.72,6.43-7.93,6.43-3.64,0-8.22-3-8.22-8.07A8.18,8.18,0,0,1,38,58.82Z"/><path class="cls-1" d="M59.32,68a2.51,2.51,0,0,1-2.79-2.64V58.39H55V56.18h1.5V52.75h3v3.57h1.93v2.07H59.53v6.22c0,1.57,1.93,1.07,2.21,1.14V68Z"/><path class="cls-1" d="M41.45,62.68V67.9H38.52V56.53h2.86v1.14a4.69,4.69,0,0,1,2.21-1.5,6.66,6.66,0,0,1,1.29,0V59c-1.5-.43-3.57.21-3.43,3.72Z"/><path class="cls-1" d="M64,62.89a2.85,2.85,0,0,0,2.93,2.64,2.5,2.5,0,0,0,2.29-1.29h3.07A5.26,5.26,0,0,1,67,68.11c-3.5,0-6-2.64-6-6.36A5.58,5.58,0,0,1,66.67,56c4,.07,5.79,3.5,5.72,6.86Zm2.64-4.5a2.36,2.36,0,0,0-2.5,2.36h5a2.37,2.37,0,0,0-2.5-2.36Z"/><path class="cls-1" d="M52.46,67.9c0,.07-.07-.43-.21-.93a5.17,5.17,0,0,1-3.43,1.29c-2,0-4.29-1.21-4.29-3.57,0-1.43.93-3.29,4.14-3.72,1.86-.29,3.29-.14,3.36-1.14.07-.36-.29-1.57-2.14-1.57a1.92,1.92,0,0,0-2.14,1.64H45.17c0-2,1.21-3.72,5-3.72,2.36,0,4.72,1,4.72,3.57V66a5.8,5.8,0,0,0,.5,1.86Zm-5.29-3.29c.07,1.21,1.64,1.43,1.93,1.29a3.61,3.61,0,0,0,2.29-.79c.43-.57.64-1.29.43-2.86-2.86.64-4.64.93-4.64,2.36Z"/><polygon class="cls-1" points="135.48 52.6 138.34 52.6 138.34 67.89 135.48 67.89 135.48 52.6 135.48 52.6"/><path class="cls-1" d="M120.4,62.75V67.9h-2.93V56.61h2.86v1.14a4.54,4.54,0,0,1,2.21-1.5,3.67,3.67,0,0,1,1.36,0V59c-1.64-.43-3.64.21-3.5,3.72Z"/><path class="cls-1" d="M113.33,62.75V67.9h-3V56.61h2.93v1.14a4.54,4.54,0,0,1,2.22-1.5,3.35,3.35,0,0,1,1.29,0V59c-1.5-.43-3.57.21-3.43,3.72Z"/><path class="cls-1" d="M126.55,63a2.84,2.84,0,0,0,2.93,2.57,2.44,2.44,0,0,0,2.29-1.29h3a5.11,5.11,0,0,1-5.14,3.86,6,6,0,0,1-6-6.29,5.58,5.58,0,0,1,5.64-5.72c3.93,0,5.79,3.5,5.64,6.86Zm2.71-4.57a2.43,2.43,0,0,0-2.57,2.36h5a2.35,2.35,0,0,0-2.43-2.36Z"/><path class="cls-1" d="M94.4,67.9h-8V52.53h6.93c2.36,0,4.79,1.07,4.79,3.93,0,2.36-1.86,2.86-2.29,3.22a4.15,4.15,0,0,1,2.86,4.22c0,2.72-2.64,4-4.29,4ZM92.68,55H89.25v3.79h3.29A2.18,2.18,0,0,0,95,56.68C95,55.46,93.75,55,92.68,55Zm0,6.07H89.25v4.5H92.9c.5,0,2.43-.43,2.43-2.07,0-.93-.21-2.43-2.64-2.43Z"/><path class="cls-1" d="M107,67.9a4.12,4.12,0,0,1-.21-.93,5.17,5.17,0,0,1-3.43,1.29c-2,0-4.29-1.21-4.29-3.57,0-1.43.93-3.22,4.22-3.72,1.71-.29,3.22-.14,3.29-1.14.07-.29-.29-1.5-2.14-1.5A1.81,1.81,0,0,0,102.4,60H99.76c0-2,1.36-3.72,5-3.72,2.29,0,4.64,1,4.72,3.57v5.86a7.62,7.62,0,0,0,.43,2.22Zm-4.93-3.29c0,1.21,1.64,1.43,1.93,1.29a3.35,3.35,0,0,0,2.21-.79c.43-.57.57-1.21.43-2.86-2.79.71-4.57.93-4.57,2.36Z"/></svg>