<svg id="Layer_1" data-name="Layer 1" xmlns="http://www.w3.org/2000/svg" viewBox="0 0 160 120"><defs><style>.cls-1{fill-rule:evenodd;}</style></defs><title>Artboard 1 copy</title><path class="cls-1" d="M94,62.72c-.68,0-1.31-.14-1.11-.77s.86-.74,1.86-.59c.53.08.42.81.16,1a1.07,1.07,0,0,1-.91.33Z"/><path class="cls-1" d="M103.6,71.83a3.7,3.7,0,0,1-2.54-.78l.26-1.51a3,3,0,0,0,2.45.85c.7-.11,1.59-1.15.84-1.73-1.26-1-3.69-1.18-2.54-4,.63-1.52,2.71-1.84,3.88-1.57a2.31,2.31,0,0,1,1.35.75s-.22,1.05-.31,1.47a3.42,3.42,0,0,0-2.45-.72c-.89.24-1.24,1.28-.78,1.71.89.85,2.17.86,2.61,2.06a2.51,2.51,0,0,1-.9,2.76,3.25,3.25,0,0,1-1.89.68Z"/><polygon class="cls-1" points="94.81 71.69 96.58 71.69 98.31 61.49 96.49 61.49 94.81 71.69 94.81 71.69"/><path class="cls-1" d="M91.43,71.69H93.3l1.53-8.26a4.6,4.6,0,0,1-1,.14,3.85,3.85,0,0,1-.87-.14l-1.48,8.26Z"/><polygon class="cls-1" points="98.06 71.69 99.83 71.69 101.56 61.49 99.74 61.49 98.06 71.69 98.06 71.69"/><polygon class="cls-1" points="80.58 71.72 82.42 61.67 85.12 61.68 85.65 69.11 89.04 61.69 91.78 61.69 90.03 71.74 88.25 71.7 89.49 64.53 86.08 71.72 84.45 71.72 83.5 64.74 82.26 71.72 80.58 71.72 80.58 71.72"/><polygon class="cls-1" points="125.53 59.41 127.3 59.41 129.03 49.21 127.21 49.21 125.53 59.41 125.53 59.41"/><path class="cls-1" d="M102.2,52.52a2.87,2.87,0,0,0-2.34,1.84l-1,5.06H97l1.51-8.54h1.7v1.25a3.71,3.71,0,0,1,3.07-1.45c2.12.32,1.83,2.41,1.76,3.14s-1,5.59-1,5.59h-1.82l1-5.6s.08-1.36-1.1-1.29Z"/><path class="cls-1" d="M107.3,55.84h5.23s1.4-4.42-1.73-4.92c-3.33-.53-5.12,2.35-5.3,4.86-.31,4.29,2.94,4.16,4.63,3.75a3.59,3.59,0,0,0,1.44-.73L112,57s-2.14,2-4,1.08c-1-.48-.65-2.21-.65-2.21Zm.3-1.45a2.56,2.56,0,0,1,2.08-1.72c1.25-.11,1.84.29,1.67,1.72Z"/><path class="cls-1" d="M91.52,55.84h5.23s1.4-4.42-1.73-4.92c-3.33-.53-5.12,2.35-5.3,4.86-.31,4.29,2.94,4.16,4.63,3.75a3.59,3.59,0,0,0,1.44-.73L96.18,57s-2.14,2-4,1.08c-1-.48-.65-2.21-.65-2.21Zm.3-1.45a2.56,2.56,0,0,1,2.08-1.72c1.25-.11,1.84.29,1.67,1.72Z"/><path class="cls-1" d="M117.4,52.54a2.08,2.08,0,0,0-1.79,1.69l-1,5.18h-1.9l1.55-8.69h1.6v1.38s.74-1.59,2-1.45a2.3,2.3,0,0,1,.89.25l-.37,1.84a1.38,1.38,0,0,0-1-.21Z"/><path class="cls-1" d="M123,55.68s-.35,2.58-2.41,2.53c-1,0-.88-1.07-.31-1.54a5.22,5.22,0,0,1,2.72-1Zm-.7,3.07.13.66h1.73l1.11-5.75a2.44,2.44,0,0,0-2.55-3.05A3.62,3.62,0,0,0,119.31,52L119,54a4.12,4.12,0,0,1,2.88-1.58c1.54,0,1.49.64,1.54.92s-.08,1.16-1.84,1.49c-1.51.28-4.07,1.22-3.57,3.43.59,2.62,4,.85,4.24.54Z"/><path class="cls-1" d="M76.88,53.77A20.76,20.76,0,0,1,81.12,44l-6.2-.09c-1.57,1.11-3.59,2.91-7,3.31l.29-.69a20.66,20.66,0,0,0,1.56-4.38A7.06,7.06,0,0,0,64,33.71c-5.9-1-10.17,4-10.91,8.29a9.89,9.89,0,0,0,5.58,10.39l-.87,2.09-.54-.1c-11.51-2-18.76,4.52-20.07,12.06-1.46,8.44,5,17.69,16.37,19.67,10.71,1.86,21-4.54,23-16.38,1.09-6.28-.93-8.92.29-16ZM59.35,42.61c.34-2,1.79-2.91,2.89-2.72a1.11,1.11,0,0,1,.92,1.35c-.08.43-1.25,3.23-1.73,4.41l-.24.58a3.08,3.08,0,0,1-1.85-3.62ZM70.16,68.72c-1.24,7.12-7.6,12.07-15.76,10.65-6-1-11.48-6-10.43-12,.5-2.89,3.76-7.67,10.7-6.46l.42.08-2.7,6.52,7,.27,2.15-5.13a23.81,23.81,0,0,1,2.75,1.12l2.45-5.9a29.49,29.49,0,0,0-2.64-1.31l1.08-2.58A15.55,15.55,0,0,0,70.51,53c-.92,5.32.54,10.55-.35,15.69Z"/><path class="cls-1" d="M88.16,58.25a4.8,4.8,0,0,1-3.3,1.62c-2.67,0-3.35-2.18-3.32-4.13.06-3.37,1.77-6.67,4.83-6.67a3.38,3.38,0,0,1,3.1,1.46l-.35,2A2.85,2.85,0,0,0,86.49,51c-2.36,0-3.24,2.8-3.21,4.74,0,1.61.69,2.4,1.8,2.4a2.19,2.19,0,0,0,1.65-.7L87,55.89H85.85l.3-1.49h2.72l-.7,3.85Z"/></svg>