<svg id="Layer_1" data-name="Layer 1" xmlns="http://www.w3.org/2000/svg" viewBox="0 0 160 120"><title>Artboard 1 copy 2</title><path d="M50.48,33.92h-.35c0,.41-.24.59-.65.59-.81,0-2.12-1-3.51-1h-.13c-4,0-6.42,4-6.42,7.48s2.32,7,6.22,7c2.36,0,3.25-1.12,3.88-1.12.41,0,.65.51.73.81h.3V42.87h-.3l-.12.67c-.28,1.6-1.75,4.12-4.29,4.12-2.25,0-3.11-2.11-3.11-6.89,0-5,1.18-6.89,3.17-6.89,2.25,0,3.92,2.7,4.23,4.71h.35V33.92Z"/><path d="M61.23,46h-.35c0,.51-.21,1.09-.68,1.09s-.45-.37-.45-1V41.67c0-2.21-2.08-2.76-4.08-2.76s-3.36,1-3.36,2a1.17,1.17,0,0,0,1.26,1.26A1.11,1.11,0,0,0,54.76,41c0-.93-1-.88-1-1.21s1.11-.58,1.77-.58c1.46,0,1.65.72,1.65,1.88v1.63l-1.9.16c-1.77.14-3.69.6-3.69,2.62,0,1.69,1.52,2.37,3,2.37a3.07,3.07,0,0,0,2.6-1.22,2,2,0,0,0,1.94,1.22A1.88,1.88,0,0,0,61.23,46Zm-4-.64c0,1-.62,2-1.54,2-1.32,0-1.38-1.2-1.38-2.22s.12-1.71,1.38-1.85l1.54-.16v2.25Z"/><path d="M61.35,47.69h5.81v-.35H65.37v-5a3,3,0,0,1,1.69-3.09h.08a1.49,1.49,0,0,0-.47,1.15A1.24,1.24,0,0,0,68,41.71a1.46,1.46,0,1,0-.06-2.91,2.79,2.79,0,0,0-2.56,1.83h0v-2c-.41.51-1.85.51-2.64.51H61.35v.35h1.34v7.85H61.35v.35Z"/><path d="M69.78,47.69h5.17v-.35H73.8V42c0-1,1-2.41,2.06-2.41.56,0,1.15.23,1.15,1.59v6.14H75.9v.35H81v-.35H79.69V41.92c0-2.1-.89-3-2.74-3a3.41,3.41,0,0,0-3.11,1.81h0V38.64c-.41.51-1.85.51-2.64.51H69.78v.35h1.34v7.85H69.78v.35Z"/><path d="M98.88,39.78c0-.68-.74-1-1.32-1a2,2,0,0,0-1.5.85,4,4,0,0,0-2.43-.7c-1.63,0-3.38,1.07-3.38,2.84a2.52,2.52,0,0,0,1.61,2.37v0a2.12,2.12,0,0,0-1.94,2.23,1.85,1.85,0,0,0,1.26,1.94v0a2.24,2.24,0,0,0-1.67,1.92c0,1.44,1.69,2.55,3.85,2.55a4.17,4.17,0,0,0,4.47-4.2c0-1.88-.93-2.74-2.84-2.7H91.77c-.48,0-1.15,0-1.15-.54s.84-1,1.57-1a2.49,2.49,0,0,1,.64.12,2.48,2.48,0,0,0,.8.12c1.67,0,3.46-1,3.46-2.8a2.81,2.81,0,0,0-.84-2c.35-.35.52-.78,1.28-.87v0a.84.84,0,0,0-.52.85.87.87,0,0,0,.89.89.94.94,0,0,0,1-1ZM91.5,48.39h3c1.94,0,2.58.17,2.58,1.36,0,1.42-1.75,2.74-3.71,2.74a2.53,2.53,0,0,1-2.74-2.12,2.68,2.68,0,0,1,.82-2Zm3.38-6.64c0,2.39-.52,2.53-1.22,2.53s-1.19-.25-1.19-2.58c0-1.57.18-2.43,1.19-2.43s1.2.25,1.22,2.49Z"/><path d="M99.19,47.69h5.36v-.35h-1.34v-8.7c-.41.51-1.85.51-2.64.51H99.19v.35h1.34v7.85H99.19v.35Z"/><path d="M100.49,36.13a1.38,1.38,0,1,0,1.38-1.38,1.38,1.38,0,0,0-1.38,1.38Z"/><path d="M107.41,43h5.36a4.25,4.25,0,0,0-4-4.08,4.44,4.44,0,0,0-4.27,4.6,4.26,4.26,0,0,0,4.33,4.41,3.87,3.87,0,0,0,4-3.4h-.35c-.43,1.81-1.55,2.93-3.07,2.93-1.81,0-2-1.52-2-2.84V43Zm0-.35,0-1.67c0-1.3.56-1.71,1.22-1.71.93,0,1.22.64,1.22,1.71v1.67Z"/><path d="M39.22,64.77H43v-.35h-.27c-1,0-1.46-.27-1.46-1.85v-11h0l4.64,13.21h.52L51,51.8h0V64.43H49.36v.35h6.16v-.35H54.06v-13h1.46V51.1H50.83l-3.28,9.38h0L44.29,51.1h-5v.35h1.48V62.75c0,.83-.19,1.67-1.5,1.67h-.08v.35Z"/><path d="M58.24,60.07H63.6a4.25,4.25,0,0,0-4-4.08,4.44,4.44,0,0,0-4.27,4.6A4.26,4.26,0,0,0,59.66,65a3.87,3.87,0,0,0,4-3.4h-.35c-.43,1.81-1.56,2.93-3.07,2.93-1.81,0-2-1.52-2-2.84V60.07Zm0-.35V58.05c0-1.3.56-1.71,1.22-1.71.93,0,1.22.64,1.22,1.71v1.67Z"/><path d="M63.66,64.77H69v-.35H67.68V50.52c-.35.58-1.42.58-2.8.58H63.66v.35H65v13H63.66v.35Z"/><path d="M69.37,64.77h5.36v-.35H73.39V50.52c-.35.58-1.42.58-2.8.58H69.37v.35h1.34v13H69.37v.35Z"/><path d="M83.8,60.5A4.63,4.63,0,1,0,79.18,65,4.45,4.45,0,0,0,83.8,60.5Zm-3,2.1c0,1.46-.6,2.06-1.59,2.06s-1.59-.6-1.59-2.06V58.4c0-1.46.6-2.06,1.59-2.06s1.59.6,1.59,2.06v4.2Z"/><path d="M83.73,64.77h5.17v-.35H87.75V59.1c0-1,1-2.41,2.06-2.41.56,0,1.15.23,1.15,1.59v6.14H89.85v.35H95v-.35H93.64V59c0-2.1-.89-3-2.74-3a3.41,3.41,0,0,0-3.11,1.81h0V55.72c-.41.51-1.85.51-2.64.51H83.73v.35h1.34v7.85H83.73v.35Z"/><path d="M39.25,68.17h1.52V77c0,3,2.08,4.84,5.25,4.84,3.57,0,5.13-1.88,5.13-4.74V69.8c0-1.13.31-1.63,1-1.63h.51v-.35H48.81v.35h.56c1,0,1.3.51,1.3,1.63v7.38c0,2.64-1.59,3.92-3.48,3.92-2.84,0-3.4-1.9-3.4-4.39V68.17h1.57v-.35H39.25v.35Z"/><path d="M51.89,81.5h5.17v-.35H55.92V75.82c0-1,1-2.41,2.06-2.41.56,0,1.15.23,1.15,1.59v6.14H58v.35h5.13v-.35H61.8V75.73c0-2.1-.89-3-2.74-3A3.41,3.41,0,0,0,56,74.52h0V72.44c-.41.51-1.85.51-2.64.51H51.89v.35h1.34v7.85H51.89v.35Z"/><path d="M63.43,81.5H68.8v-.35H67.46v-8.7c-.41.51-1.85.51-2.64.51H63.43v.35h1.34v7.85H63.43v.35Z"/><path d="M64.73,69.93a1.38,1.38,0,1,0,1.38-1.38,1.38,1.38,0,0,0-1.38,1.38Z"/><path d="M72.74,81.73h.52l2.88-6.8c.49-1.09.89-1.61,1.34-1.63h.17v-.35h-3v.35H75c.56,0,.89.21.89.72a3.43,3.43,0,0,1-.33,1.28l-1.32,3.11L72,73.3h1.17v-.35H68.25v.35h.83l3.65,8.43Z"/><path d="M79.95,76.8h5.36a4.25,4.25,0,0,0-4-4.08A4.44,4.44,0,0,0,77,77.32a4.26,4.26,0,0,0,4.33,4.41,3.87,3.87,0,0,0,4-3.4H85c-.43,1.81-1.55,2.93-3.07,2.93-1.81,0-2-1.52-2-2.84V76.8Zm0-.35V74.78c0-1.3.56-1.71,1.22-1.71.93,0,1.22.64,1.22,1.71v1.67Z"/><path d="M85.35,81.5h5.81v-.35H89.37v-5a3,3,0,0,1,1.69-3.09h.08a1.49,1.49,0,0,0-.47,1.15A1.24,1.24,0,0,0,92,75.51a1.46,1.46,0,1,0-.06-2.91,2.79,2.79,0,0,0-2.56,1.83h0v-2c-.41.51-1.85.51-2.64.51H85.35v.35h1.34v7.85H85.35v.35Z"/><path d="M93.93,81.73h.35a.76.76,0,0,1,.8-.47,13.43,13.43,0,0,0,2.2.47,3.17,3.17,0,0,0,3.11-3.18c0-2.37-1.63-2.55-3.71-2.84-1.09-.16-1.77-.33-1.77-1.18s.8-1.46,1.84-1.46c1.46,0,2.23,1.15,2.72,2.41h.31l-.12-2.76h-.29c0,.23-.23.43-.6.43-.62,0-1.13-.43-2-.43a2.89,2.89,0,0,0-2.89,2.89c0,2.51,1.9,2.72,3.38,2.89s2,.31,2,1.21a1.73,1.73,0,0,1-1.9,1.67c-1.48,0-2.68-1.5-3-2.91h-.35v3.26Z"/><path d="M100.68,81.5H106v-.35H104.7v-8.7c-.41.51-1.85.51-2.64.51h-1.38v.35H102v7.85h-1.34v.35Z"/><path d="M102,69.93a1.38,1.38,0,1,0,1.38-1.38A1.38,1.38,0,0,0,102,69.93Z"/><path d="M107,73.3v6.22a2.13,2.13,0,0,0,2.14,2.21,2.76,2.76,0,0,0,2.58-1.5l-.25-.14c-.23.35-.54.82-1,.82s-.76-.37-.76-1V73.3h1.79v-.35h-1.79V68.77h-.35c0,2.06-1.4,4.18-3.36,4.18v.35Z"/><path d="M111.38,73.3h.82l3.73,8.64-.12.78c-.08.56-.47,2.78-1.11,3v-.06a2.37,2.37,0,0,0,.1-.66,1.16,1.16,0,0,0-1.28-1.17,1.21,1.21,0,0,0-1.28,1.32,1.48,1.48,0,0,0,1.59,1.36c1.53,0,1.92-1.69,2.1-2.51l.52-2.37,1-2.53,1.92-4.33c.43-1,.82-1.46,1.24-1.46h.16v-.35h-3v.35h.41c.62,0,.89.35.89.68a5.91,5.91,0,0,1-.56,1.77l-1.13,2.66-2.27-5.11h1.28v-.35h-5v.35Z"/><path d="M84.09,43h5.36a4.26,4.26,0,0,0-4-4.08,4.44,4.44,0,0,0-4.27,4.6,4.26,4.26,0,0,0,4.33,4.41,3.87,3.87,0,0,0,4-3.4h-.35c-.43,1.81-1.55,2.93-3.07,2.93-1.81,0-2-1.52-2-2.84V43Zm0-.35,0-1.67c0-1.3.56-1.71,1.22-1.71.93,0,1.22.64,1.22,1.71v1.67Z"/></svg>