<svg id="Layer_1" data-name="Layer 1" xmlns="http://www.w3.org/2000/svg" viewBox="0 0 160 120"><defs><style>.cls-1{fill:#fff;}</style></defs><title>Artboard 1 copy 11</title><rect x="43.33" y="23.33" width="73.33" height="73.33"/><path class="cls-1" d="M92.73,68.7h.56c1,0,1.12,0,1.12.8v.56c0,1.12-1.28,1.92-2.71,1.92-2,0-3.11-1.44-3.11-4.23s1.36-4.15,3.11-4.15A3.13,3.13,0,0,1,95,66l1.12-.16V62.23h-.88l-.56,1.12a4.87,4.87,0,0,0-3.35-1.12,5.11,5.11,0,0,0-3.75,1.44,5.42,5.42,0,0,0-1.68,4.07,5.78,5.78,0,0,0,1.68,4.15,4.82,4.82,0,0,0,3.67,1.52A5.89,5.89,0,0,0,95,72.29l.56.88h.8V69.58c0-1,.08-.88.88-.88h.56V67.42h-5Z"/><path class="cls-1" d="M57.94,63.83c1.28,0,2,.16,2.39.8a4.75,4.75,0,0,1,.48,2.15v.08h1.28V62.71h-11v1.12h.64c1,0,1.28.08,1.28,1v6.38c0,.88-.32,1-1.28,1h-.64v1.12h6.54V72.13H56.34c-.88,0-1-.08-1-1V68.38h.88c1.36,0,1.52.4,1.52,2.15h1V65.11h-1c0,1.76-.16,1.92-1.52,1.92h-1V63.83Z"/><path class="cls-1" d="M92.09,48.83v6.22c0,.88-.4,1-1.36,1h-.16v1.12l10.61.16V53H99.91a4,4,0,0,1-.48,2.23c-.32.64-1,.8-2.31.8H94.48V48.75c0-.88.24-1,1.28-1h.8V46.67H90.09v1.2h.64C91.69,47.87,92.09,47.87,92.09,48.83Z"/><path class="cls-1" d="M80.44,48.83v6.22c0,.88-.48,1-1.36,1h-.56v1.12l11,.16V53H88.26a4,4,0,0,1-.48,2.23c-.32.64-1,.8-2.31.8H82.83V48.75c0-.88.24-1,1.28-1h.8V46.67H78.44v1.2H79C79.88,47.87,80.44,47.87,80.44,48.83Z"/><path class="cls-1" d="M50,49.31l3.19,8h2l2.31-6,2.39,6h1.92l3.11-8.22c.32-.8.56-1.2,1-1.28h.66c.88,0,1.42.17,1.42,1v6.22c0,.88-.48,1-1.44,1h-.64v1.12l11.89.08V52.9H76.53C76.29,55.05,75.81,56,73.9,56H70.46V52.34h.8c1.36,0,1.6.32,1.68,2.15h1.28V49.07H72.94c-.16,1.68-.32,2.15-1.68,2.15h-.8V48h3c2.15,0,2.71.4,2.79,2.87h1.28V46.67h-16v1.12h.8c.56,0,.88.16.88.48a1.92,1.92,0,0,1-.16.8l-2.15,5.43h-.08c-1-2.63-2.23-5.75-2.23-5.75a1.19,1.19,0,0,1-.08-.48c0-.4.32-.48.8-.48h.88V46.67H54.51v1.12h.8c.88,0,1.2.48,1.28,1.36l-2.15,5.27h-.16c-1-2.87-2.23-5.75-2.23-5.75v-.32c0-.32.32-.48.88-.48h.48V46.75H48v1.12h.24C49.08,47.87,49.56,48.35,50,49.31Z"/><path class="cls-1" d="M104.54,62.31c-3.51,0-6.22,2.23-6.22,5.59s2.79,5.59,6.38,5.59,6.3-2.31,6.06-5.59C110.76,64.55,108.13,62.31,104.54,62.31Zm.16,9.81c-2,0-3.67-1.44-3.67-4.23s1.52-4.23,3.67-4.23,3.67,1.44,3.67,4.23S106.69,72.13,104.7,72.13Z"/><path class="cls-1" d="M105.57,52.82l1.84.32c1.28.16,2.79.08,2.63,1.44-.08,1.12-1.2,1.6-3,1.52-1.92-.24-3.35-1.12-3.67-3.11h-1.28v4.31h1l.4-1.12a6.22,6.22,0,0,0,3.75,1.36c2.79,0,4.71-1,4.71-3.43,0-2.63-1.76-3.11-4.07-3.19l-2.23-.4c-1-.16-1.84-.24-1.84-1a1.94,1.94,0,0,1,2.15-1.68c1.76,0,3.75.56,4.07,2.71h1.12V46.75h-1l-.56.88A5.6,5.6,0,0,0,106,46.51c-2.31,0-4.15,1.28-4.07,3.19S102.86,52.34,105.57,52.82Z"/><path class="cls-1" d="M84.43,70.37c0,1.2,0,1.68-.64,1.76-.24,0-.48-.24-.56-.88v-.64C83.15,69.1,82.91,68.46,81,68c2.07-.32,3.19-1.28,3.19-2.79,0-1.68-1.36-2.47-4.07-2.47H72.78v1.12h.88c.88,0,1,.08,1,1v6.38c0,.73-.41.93-1,1H73c-.64,0-1-.24-1.28-1l-3.43-8.46H65.68l-3.59,8.46c-.4.72-.56,1-1.44,1h-.48v1.12h5.59V72.13H64.64c-.56,0-.88-.08-.88-.4a1.65,1.65,0,0,1,.16-.48L64.4,70h4.15L69,71.25a1.65,1.65,0,0,1,.16.48c0,.32-.24.4-.88.4H67.19v1.12h12V72.13h-1c-.88,0-1-.08-1-1v-3h1c1.84,0,2.39.4,2.47,2.15l.08,1.28c.08,1.44,1,1.84,2.47,1.84s2.23-.8,2.23-2.71v-.4ZM65,68.54l1.6-4,1.68,4ZM79.48,67H77.17V63.75h2.31c1.44,0,2.23.4,2.23,1.68C81.72,66.54,81,66.94,79.48,67Z"/></svg>