<?xml version="1.0" encoding="utf-8"?>
<!-- Generator: Adobe Illustrator 21.1.0, SVG Export Plug-In . SVG Version: 6.00 Build 0)  -->
<svg version="1.1" id="Layer_1" xmlns="http://www.w3.org/2000/svg" xmlns:xlink="http://www.w3.org/1999/xlink" x="0px" y="0px"
	 viewBox="0 0 160 120" style="enable-background:new 0 0 160 120;" xml:space="preserve">
<g>
	<g>
		<path d="M21.1,40.4v-7.6h2.1v7.3c0,2.7,1,3.8,3.3,3.8c2.2,0,3.2-1.3,3.2-3.6v-7.5h2v7.4c0,3.4-1.7,5.5-5.2,5.5
			C22.8,45.8,21.1,43.7,21.1,40.4z"/>
		<path d="M36.6,32.9h2.1l5.6,7.7c0.7,1,1.3,2.1,1.3,2.1h0c0,0-0.1-1-0.1-1.9v-7.8h1.9v12.7h-1.9l-5.9-8.1c-0.6-0.9-1.1-1.9-1.1-1.9
			h0c0,0,0.1,0.8,0.1,1.6v8.4h-2V32.9z"/>
		<path d="M52.5,32.9h2.1v12.7h-2.1V32.9z"/>
		<path d="M58.2,32.9h2.2l3.2,8.3c0.4,0.9,0.7,2.1,0.7,2.2h0c0,0,0.4-1.2,0.7-2.2l3.1-8.3h2l-4.9,12.7h-2.1L58.2,32.9z"/>
		<path d="M73.8,32.9h7.7v1.7h-5.6v3.5h5v1.7h-5v4.1h5.7v1.7h-7.9V32.9z"/>
		<path d="M86,32.9h4c3,0,4.7,1.2,4.7,3.5c0,2.2-1.6,3.1-3.5,3.3v0c0.3,0.2,0.7,0.7,1.5,1.7l3,4.1h-2.4l-2.6-3.6
			c-1.3-1.8-1.6-1.9-2.3-1.9h-0.2v5.5H86V32.9z M89.9,38.4c1.8,0,2.5-0.7,2.5-2c0-1.3-0.8-1.9-2.7-1.9h-1.7v3.9H89.9z"/>
		<path d="M98.1,44.5l0.9-1.5c0.3,0.2,1.3,1,3,1c1.5,0,2.5-0.7,2.5-1.8c0-1.3-1.2-1.7-3.1-2.6c-1.6-0.7-3-1.7-3-3.7
			c0-2.2,1.9-3.4,4.1-3.4c2.1,0,3.1,0.7,3.7,1l-0.9,1.5c-0.5-0.3-1.4-0.8-2.7-0.8c-1.2,0-2.1,0.5-2.1,1.6c0,1.2,1.1,1.6,2.4,2.2
			c1.8,0.8,3.6,1.7,3.6,4c0,2.2-1.8,3.6-4.5,3.6C99.9,45.8,98.6,45,98.1,44.5z"/>
		<path d="M110.7,32.9h2.1v12.7h-2.1V32.9z"/>
		<path d="M120.3,34.6h-3.9v-1.8h9.9v1.8h-3.9v10.9h-2.1V34.6z"/>
		<path d="M133.1,40.7l-4.5-7.9h2.3l3.3,6h0l3.2-6h2.1l-4.3,7.9v4.8h-2.1V40.7z"/>
		<path d="M20.4,61c0-3.5,2.4-6.6,6.7-6.6c4.2,0,6.7,3.1,6.7,6.5c0,3.5-2.4,6.6-6.6,6.6C22.9,67.6,20.4,64.5,20.4,61z M31.6,61
			c0-2.6-1.5-4.9-4.4-4.9c-2.9,0-4.5,2.2-4.5,4.8c0,2.6,1.5,4.9,4.4,4.9C30.1,65.8,31.6,63.6,31.6,61z"/>
		<path d="M37.5,54.7h7.6v1.7h-5.5V60h4.9v1.7h-4.9v5.7h-2.1V54.7z"/>
		<path d="M20.4,82.8c0-3.5,2.4-6.6,6.7-6.6c1.7,0,2.8,0.4,3.8,1l-1,1.6c-0.7-0.5-1.6-0.8-2.9-0.8c-2.9,0-4.4,2-4.4,4.7
			c0,2.8,1.4,4.9,4.4,4.9c1.4,0,2.4-0.5,3.1-1l0.9,1.5c-0.7,0.6-2.2,1.3-4.1,1.3C22.7,89.4,20.4,86.3,20.4,82.8z"/>
		<path d="M38.2,76.5h2.1l5.2,12.7h-2.2l-1.1-2.8h-5.9l-1,2.8h-2.1L38.2,76.5z M41.5,84.7L40,80.8c-0.4-1.1-0.8-2.3-0.8-2.3h0
			c0,0-0.4,1.2-0.8,2.3l-1.5,3.9H41.5z"/>
		<path d="M48.6,76.5h2.2v11h5.4v1.7h-7.5V76.5z"/>
		<path d="M59.7,76.5h2.1v12.7h-2.1V76.5z"/>
		<path d="M66.6,76.5h7.6v1.7h-5.5v3.6h4.9v1.7h-4.9v5.7h-2.1V76.5z"/>
		<path d="M76.9,82.8c0-3.5,2.4-6.6,6.7-6.6c4.2,0,6.7,3.1,6.7,6.5c0,3.5-2.4,6.6-6.6,6.6C79.4,89.4,76.9,86.3,76.9,82.8z M88,82.8
			c0-2.6-1.5-4.9-4.4-4.9c-2.9,0-4.5,2.2-4.5,4.8c0,2.6,1.5,4.9,4.4,4.9C86.5,87.6,88,85.4,88,82.8z"/>
		<path d="M93.5,76.5h4c3,0,4.7,1.2,4.7,3.5c0,2.2-1.6,3.1-3.5,3.3v0c0.3,0.2,0.7,0.7,1.5,1.7l3,4.1h-2.4l-2.6-3.6
			c-1.3-1.8-1.6-1.9-2.3-1.9h-0.2v5.5h-2.1V76.5z M97.4,82c1.8,0,2.5-0.7,2.5-2c0-1.3-0.8-1.9-2.7-1.9h-1.7V82H97.4z"/>
		<path d="M106.2,76.5h2.1l5.6,7.7c0.7,1,1.3,2.1,1.3,2.1h0c0,0-0.1-1-0.1-1.9v-7.8h1.9v12.7h-1.9l-5.9-8.1
			c-0.6-0.9-1.1-1.9-1.1-1.9h0c0,0,0.1,0.8,0.1,1.6v8.4h-2V76.5z"/>
		<path d="M121.9,76.5h2.1v12.7h-2.1V76.5z"/>
		<path d="M132.3,76.5h2.1l5.2,12.7h-2.2l-1.1-2.8h-5.9l-1,2.8h-2.1L132.3,76.5z M135.6,84.7l-1.5-3.9c-0.4-1.1-0.8-2.3-0.8-2.3h0
			c0,0-0.4,1.2-0.8,2.3l-1.5,3.9H135.6z"/>
	</g>
</g>
</svg>
