<?xml version="1.0" encoding="utf-8"?>
<!-- Generator: Adobe Illustrator 21.1.0, SVG Export Plug-In . SVG Version: 6.00 Build 0)  -->
<svg version="1.1" id="Layer_1" xmlns="http://www.w3.org/2000/svg" xmlns:xlink="http://www.w3.org/1999/xlink" x="0px" y="0px"
	 viewBox="0 0 160 120" style="enable-background:new 0 0 160 120;" xml:space="preserve">
<path d="M131.4,68.3c-1,0-1.8,0-2.8,0c0-5.3,0-10.5,0-15.8c1,0,2,0,2.9,0c0.1,0,0.3,0.1,0.3,0.3c2.5,3.5,5,6.9,7.5,10.4
	c0.3,0.4,0.6,0.8,1,1.2c0-3.9,0-7.9,0-11.8c1,0,1.9,0,2.8,0c0,5.2,0,10.5,0,15.8c-1,0-2,0-3,0c-0.1,0-0.3-0.2-0.4-0.3
	c-2.7-3.8-5.5-7.6-8.2-11.4c0-0.1-0.1-0.1-0.2-0.2C131.4,60.5,131.4,64.4,131.4,68.3z"/>
<path d="M125.6,68c-0.5-1.3-1.1-2.6-1.6-4c-1.5-3.7-3.1-7.8-4.6-11.5c-0.7,0-2.2,0-3,0c-1.6,4.1-3.5,8.7-5.1,12.7
	c-0.4,1-0.8,2-1.2,3.1c0.9,0,1.7,0,2.5,0c0.3,0,0.4-0.1,0.5-0.3c0.3-0.9,0.7-1.7,1-2.6c0.1-0.3,0.2-0.4,0.5-0.4c2.3,0,4.5,0,6.8,0
	c0.3,0,0.4,0.1,0.5,0.4c0.3,0.9,0.7,1.7,1,2.6c0.1,0.1,0.2,0.3,0.3,0.3c0.8,0,1.7,0,2.6,0C125.7,68.2,125.7,68.1,125.6,68z
	 M115,62.9c1-2.5,1.9-5,2.9-7.6c1,2.6,2,5.1,2.9,7.6C118.9,62.9,117,62.9,115,62.9z"/>
<path d="M68.4,52.7c0.9,0,1.8,0,2.7,0c0,0.2,0,0.4,0,0.5c0,2.6,0,5.3,0,7.9c0,0.7,0.1,1.4,0.2,2c0.5,2.3,2.3,3,4.3,2.8
	c2.2-0.3,3.2-1.9,3.3-4.1c0.1-2.9,0-5.8,0-8.6c0-0.2,0-0.3,0-0.5c0.9,0,1.8,0,2.7,0c0,0.1,0,0.3,0,0.4c0,2.8,0,5.5,0,8.3
	c0,1.5-0.2,3-1.1,4.2c-0.9,1.4-2.2,2.1-3.8,2.4c-1.8,0.3-3.6,0.3-5.3-0.6c-1.7-0.8-2.6-2.2-2.9-4c-0.1-0.6-0.2-1.1-0.2-1.7
	c0-2.9,0-5.8,0-8.7C68.4,52.9,68.4,52.8,68.4,52.7z"/>
<path d="M31,53.9c-0.2,0.7-0.3,1.3-0.5,2c-0.8-0.2-1.6-0.5-2.4-0.7c-1.4-0.4-2.9-0.6-4.4-0.2c-0.4,0.1-0.9,0.3-1.2,0.6
	c-1,0.8-0.9,2,0.2,2.5c0.8,0.4,1.7,0.6,2.5,0.8c1.3,0.3,2.7,0.6,3.9,1.2c2.6,1.3,2.7,4.5,1.5,6c-0.9,1.1-2.1,1.7-3.4,2
	c-2.2,0.5-4.4,0-6.5-0.6c-0.6-0.2-1.2-0.4-1.8-0.6c0.2-0.7,0.3-1.4,0.5-2c1.1,0.3,2.2,0.7,3.2,0.9c1.3,0.3,2.5,0.6,3.8,0.2
	c0.5-0.1,0.9-0.3,1.3-0.6c1.1-0.7,1.1-2.1,0.1-2.9c-0.8-0.6-1.7-0.8-2.6-1c-1.2-0.3-2.4-0.6-3.5-1c-1.2-0.4-2.1-1.2-2.5-2.6
	c-0.4-1.8,0.3-3.5,2-4.4c1.5-0.8,3.2-1.1,5-0.9C27.9,52.8,29.5,53.3,31,53.9z"/>
<path d="M38.6,54.9c0,1.5,0,2.9,0,4.3c2.3,0,4.5,0,6.8,0c0,0.7,0,1.4,0,2.1c-2.2,0-4.5,0-6.8,0c0,1.6,0,3.1,0,4.7c2.6,0,5.2,0,7.8,0
	c0,0.7,0,1.4,0,2.1c-3.5,0-7,0-10.5,0c0-5.1,0-10.2,0-15.3c3.5,0,7,0,10.5,0c0,0.7,0,1.4,0,2.1C43.8,54.9,41.2,54.9,38.6,54.9z"/>
<path d="M62.6,63.9c0.7,0.3,1.4,0.7,2.1,1c-0.5,0.9-1.1,1.6-2,2.2c-1.1,0.8-2.4,1.1-3.8,1.2c-1.4,0.1-2.7,0-4-0.6
	c-2-0.8-3.2-2.3-3.8-4.3c-0.7-2.3-0.6-4.5,0.3-6.7c0.9-2.1,2.5-3.3,4.7-3.8c2.3-0.5,4.5-0.3,6.6,1.1c0.8,0.6,1.5,1.3,1.8,2
	c-0.7,0.3-1.4,0.7-2.1,1c-0.5-0.8-1.2-1.4-2.1-1.7c-2.7-1.1-6.1-0.3-6.9,3.6c-0.3,1.4-0.2,2.8,0.2,4.1c0.8,2.3,2.5,3.2,4.7,3.1
	c1.4,0,2.7-0.4,3.6-1.5C62.3,64.3,62.4,64.1,62.6,63.9z"/>
<path d="M106.2,68.3c-0.9,0-1.8,0-2.7,0c0-5.3,0-10.5,0-15.8c0.9,0,1.8,0,2.7,0C106.2,57.8,106.2,63,106.2,68.3z"/>
<path d="M95.6,61.5c0.2,0,0.2-0.1,0.3-0.1c3.1-1,4.3-4.7,2.2-7.2c-0.9-1.1-2.2-1.6-3.7-1.6c-2.5,0-5.1,0-7.6,0c-0.1,0-0.3,0-0.4,0
	c0,5.3,0,10.5,0,15.8h2.7c0-1.8,0-3.5,0-5.3c0-0.4,0-0.8,0-1.2v-7h0.6c1.5,0,3,0,4.5,0c0.9,0,1.7,0.5,2,1.5c0.3,0.9,0.2,2.2-0.6,2.9
	c-0.6,0.5-1.3,0.7-2.1,0.8c-0.4,0-0.9,0-1.3,0c-0.3,0-0.4,0.3-0.3,0.5l1,1.5l3.7,6.4l3,0C98.3,66,97,63.8,95.6,61.5z"/>
</svg>
