<svg id="Layer_1" data-name="Layer 1" xmlns="http://www.w3.org/2000/svg" viewBox="0 0 160 120"><defs><style>.cls-1,.cls-2{fill-rule:evenodd;}.cls-2{fill:#fff;}</style></defs><title>Artboard 1 copy 3</title><path class="cls-1" d="M80.17,56.47a146.82,146.82,0,0,0-40.48,5.7V83h80.62V62.17a139.34,139.34,0,0,0-40.14-5.7Z"/><path class="cls-1" d="M39.69,62.17V35.73h80.62V62.16a149,149,0,0,0-40.07-5.5,151.15,151.15,0,0,0-40.55,5.52Z"/><path class="cls-2" d="M80,57.23a176.16,176.16,0,0,1,40.31,4.95V62C119,61.43,102.78,55.39,80,55.39h0c-22.78,0-39,6-40.31,6.59v.2A176.17,176.17,0,0,1,80,57.23Z"/><path class="cls-2" d="M61,65.1c0-.53-.28-.69-1.17-.69v-.56l2.61-.1V74c0,.53.28.69,1,.69v.46l-2.4.1V73.66h0a2.43,2.43,0,0,1-2.37,1.65c-1.57,0-3-1.88-3-4.08s1.47-4.08,3.41-4.08A2,2,0,0,1,61,68.42h0V65.1Zm44.6,6.13a3.75,3.75,0,1,1-3.73-4.08,3.82,3.82,0,0,1,3.73,4.08Zm-12,3.88v-.56c.89,0,1.17-.16,1.17-.69V68.6c0-.53-.28-.69-1.17-.69v-.56l2.61-.1v6.6c0,.53.28.69,1.17.69v.56Zm-6.07-1.92c0,1.07-.49,2-1.58,2-.91,0-1.12-.63-1.24-1.49h0a2.3,2.3,0,0,1-2.47,1.59,2,2,0,0,1-2.17-1.9c0-1.9,3.24-2.66,4.55-3.14V68.73c0-.83-1-1-1.58-1a2.39,2.39,0,0,0-1.44.41.82.82,0,0,1,.66.88.89.89,0,1,1-1.78,0c0-1,1.21-1.85,2.61-1.85,2,0,3,.53,3,2.28v4c0,.82.18.92.48.92.49,0,.6-.76.6-1.16Zm-33.3,1.92h-9v-.56c1.17,0,1.43-.3,1.43-1.09V65.4c0-.79-.26-1.09-1.43-1.09v-.56H54l.09,4.06h-.48c-.74-2.51-1.6-3.5-3.64-3.5-.91,0-1.67.26-1.67,1.09v3.5c1.61,0,2.3-.2,2.55-2l.43,0v4.56h-.43c-.25-1.78-.94-1.95-2.55-2v4.36c0,.53.32.73,1.26.73,2.06,0,3.66-.5,4.33-3.68h.48l-.09,4.24Zm54.53-7.86V68.8h0a2.64,2.64,0,0,1,2.35-1.65c1.09,0,2.29.61,2.29,3v3.68c0,.53.28.69,1.09.69v.56H112V69.59c0-1.44-.66-1.78-1.23-1.78-1.14,0-1.87,1.54-1.87,2.79v3.25c0,.53.28.69,1.2.69v.56h-3.73v-.56c.81,0,1.09-.16,1.09-.69V68.6c0-.53-.28-.69-1.09-.69v-.56l2.41-.1Zm-4.79,4c0-2.71-.83-3.52-2.07-3.52s-2.07.81-2.07,3.52.83,3.52,2.07,3.52,2.07-.81,2.07-3.52ZM96.2,64.77a.86.86,0,1,1-.86-.92.89.89,0,0,1,.86.92Zm-6,0v2.58h2.14v.56H90.24v6c0,.69.4.86.84.86.6,0,1.12-.46,1.12-1.78v-.35h.43v.28c0,1.49-.41,2.41-1.93,2.41-1.08,0-1.9-.38-1.9-2V67.91H87.67v-.56c1.43-.13,1.61-.56,2-2.58Zm-5.64,6c-1.08.28-2.89,1.11-2.89,2.54,0,.74.35,1.27,1.08,1.27,1,0,1.81-1,1.81-2.38V70.8Zm-5.41,2.63a3.26,3.26,0,0,1-3,1.88,3.81,3.81,0,0,1-3.72-4.08,4.07,4.07,0,0,1,4-4.08c1.26,0,2.55.66,2.55,1.85a1,1,0,0,1-1,1.06.88.88,0,0,1-1-.89.72.72,0,0,1,.78-.79,2.16,2.16,0,0,1,.32,0c-.23-.48-.84-.69-1.69-.69-1.49,0-2.41,1.14-2.41,3.34s.71,3.7,2.35,3.7a2.7,2.7,0,0,0,2.33-1.52l.38.2Zm-9.71,1.78V73.66h0a2.64,2.64,0,0,1-2.35,1.65c-1.38,0-2.29-1-2.29-3V68.6c0-.53-.28-.69-1.09-.69v-.56h2.53v5.71c0,.92.34,1.59,1.15,1.59,1.26,0,1.81-1.26,2-2.35V68.6c0-.53-.28-.69-1.2-.69v-.56H70.8v6.51c0,.53.28.69,1.08.69v.56l-2.4.1Zm-8.39-4c0-2.28-.71-3.47-1.87-3.47-1.32,0-1.87,1.44-1.87,3.47,0,2.46.68,3.57,1.77,3.57s2-1.34,2-3.57Z"/><path class="cls-2" d="M114.24,41.6a66.24,66.24,0,0,0,0,10.09,6.19,6.19,0,0,0-1.3,0c-.84-1.26-4.7-6.49-5.63-7.66,0,2.05-.09,5.88,0,7.66a12.38,12.38,0,0,0-1.3,0,81.24,81.24,0,0,0,0-10.09,11.52,11.52,0,0,0,1.3,0c1.16,1.59,4.37,5.89,5.58,7.47,0-1.87.09-5.84,0-7.47a3.25,3.25,0,0,0,1.35,0ZM90.61,48.88a2.84,2.84,0,0,1-3.12,2.9,6.69,6.69,0,0,1-2.79-.84,7.88,7.88,0,0,0,0-1.49,5,5,0,0,0,2.7,1.26,1.48,1.48,0,0,0,1.67-1.54A2.23,2.23,0,0,0,88,47.44c-.6-.51-1.35-.93-1.77-1.26a2.5,2.5,0,0,1,1.58-4.67,4.38,4.38,0,0,1,2.51.84,6.79,6.79,0,0,0-.6,1.12,2.44,2.44,0,0,0-1.86-1,1.35,1.35,0,0,0-1.49,1.4,1.43,1.43,0,0,0,.6,1A11.43,11.43,0,0,0,88.65,46c1.16.75,2,1.4,2,2.85ZM72,51.69a10.8,10.8,0,0,0-1.72,0c-.19-.65-.56-1.82-1-2.94a27.73,27.73,0,0,0-3.91,0c-.28.79-.7,2.38-.88,2.94a7.11,7.11,0,0,0-1.4,0c.65-1.45,3.3-8.69,3.63-10.09a8,8,0,0,0,1.54,0c.42,1.54,3.12,8.69,3.72,10.09Zm-3.12-4.06c-.46-1.35-1.21-3.46-1.63-4.62-.56,1.73-1.07,3.18-1.53,4.62a12,12,0,0,0,3.16,0Zm34.14-1.12a5.12,5.12,0,0,1-4.93,5.32c-3,0-5-2.38-5-5.32a5,5,0,1,1,9.9,0Zm-1.58,0c0-1.64-1-4-3.39-4s-3.35,2.38-3.35,4.06c0,2,1.07,4.3,3.39,4.3s3.35-2.33,3.35-4.34Zm-49-2.24c0,2.24-2.28,3.41-4.23,3.36,0-.23,0-.56-.09-.79,1.72-.09,2.84-.89,2.84-2.48a2.23,2.23,0,0,0-2.47-2.15H47.26c0,.61,0,7.43.19,9.48a5.3,5.3,0,0,0-1.72,0,96.45,96.45,0,0,0,0-10.37c.84,0,1.16,0,1.49,0a11.61,11.61,0,0,1,1.44,0c1.67,0,3.81.61,3.81,2.94Zm8.37,6.35a9.26,9.26,0,0,1,0,1.12,32.59,32.59,0,0,0-5.21,0c.19-1.54.14-8.64,0-10.18a46.77,46.77,0,0,0,5.16,0v1.12a31.07,31.07,0,0,0-3.58-.14c0,.7,0,2.52,0,3.36a16.69,16.69,0,0,0,3.4-.09v1.12a20.74,20.74,0,0,0-3.4,0c0,1,0,2.62,0,3.83,1,0,2.7,0,3.72-.09Zm18-3.69c.93,1.17,2.74,3.6,3.63,4.76a11.05,11.05,0,0,0-1.91,0,48.89,48.89,0,0,0-3-4.3l-.14-.89a2,2,0,0,0,2.33-2.15,2,2,0,0,0-2.19-1.87h-1c-.09,1.91,0,7.05.14,9.2a10.22,10.22,0,0,0-1.67,0,92.2,92.2,0,0,0,0-10.14c.79,0,1.12,0,1.39,0a9.58,9.58,0,0,1,1.35,0c1.44,0,3.49.47,3.49,2.62a2.65,2.65,0,0,1-2.37,2.76Z"/></svg>