<svg id="Layer_1" data-name="Layer 1" xmlns="http://www.w3.org/2000/svg" viewBox="0 0 160 120"><title>Artboard 1 copy 10</title><path d="M45.68,48.43a9.86,9.86,0,0,0-3.22-2.06,9.19,9.19,0,0,0-3.74-.71A10.12,10.12,0,0,0,28.61,55.78a9.71,9.71,0,0,0,3,7.15,9.92,9.92,0,0,0,7.15,3h.19a9.6,9.6,0,0,0,6.7-2.45,8.05,8.05,0,0,0,2.38-5H39V54.55H52.19v2.19h0a13.1,13.1,0,0,1-3.74,9.73,13.46,13.46,0,0,1-9.54,3.61h-.19a14.18,14.18,0,1,1,0-28.35,15,15,0,0,1,5.22,1,16.21,16.21,0,0,1,4.51,2.84l-2.77,2.9Zm-7,21.65Zm13.4-13.27Zm0,0Z"/><path d="M62.76,51.85a9,9,0,0,1,9.15,9,8.75,8.75,0,0,1-2.64,6.38,9.15,9.15,0,0,1-15.66-6.38,8.75,8.75,0,0,1,2.64-6.38,9.32,9.32,0,0,1,6.51-2.64Zm3.74,5.22a5.29,5.29,0,0,0-7.48,0,5.51,5.51,0,0,0-1.55,3.87A5.63,5.63,0,0,0,59,64.8a5.29,5.29,0,0,0,7.48,0,5.61,5.61,0,0,0,0-7.73Z"/><path d="M82.48,51.85a9,9,0,0,1,9.15,9A8.75,8.75,0,0,1,89,67.25a9.15,9.15,0,0,1-15.66-6.38A8.75,8.75,0,0,1,76,54.49a9.55,9.55,0,0,1,6.51-2.64Zm3.74,5.22a5.29,5.29,0,0,0-7.48,0,5.51,5.51,0,0,0-1.55,3.87,5.63,5.63,0,0,0,1.55,3.87,5,5,0,0,0,3.74,1.55,5.2,5.2,0,0,0,3.74-1.55,5.51,5.51,0,0,0,1.55-3.87A5.25,5.25,0,0,0,86.22,57.07Z"/><path d="M101.49,51.85a7,7,0,0,1,5.28,2.06V52.36h3.74V69.7a9.2,9.2,0,0,1-2.64,6.38,8.45,8.45,0,0,1-5.41,2.19A10.62,10.62,0,0,1,97.24,77,9.79,9.79,0,0,1,93.82,73l3.42-1.55a4.92,4.92,0,0,0,5.09,3.22,4.53,4.53,0,0,0,4.32-4.7V68a6.93,6.93,0,0,1-4.9,2.06,9,9,0,0,1-6.32-2.64A9.68,9.68,0,0,1,93,61.06c.13-5.16,4.25-9.22,8.51-9.22Zm4.25,5.22a4.83,4.83,0,0,0-7.09,0,5.75,5.75,0,0,0-1.48,3.87c0,3,2.06,5.54,5,5.54a5,5,0,0,0,3.54-1.68,5.78,5.78,0,0,0,0-7.73Z"/><rect x="113.03" y="42.83" width="3.87" height="26.68"/><path d="M122.56,60.61l8.25-3.35c-1.48-1.87-3.54-2.77-6.38-.9a5.2,5.2,0,0,0-1.87,4.25Zm.58,3.09c1.55,3.67,6.9,3.67,9,.32l3,2.06a8.92,8.92,0,0,1-7.6,4.06,8.44,8.44,0,0,1-6.38-2.64,9.67,9.67,0,0,1-.39-12.89,8.33,8.33,0,0,1,9.15-2.26c2.26.77,4.12,2.84,5.54,6.32Z"/></svg>